<?xml version="1.0" encoding="UTF-8"?>
<svg version="1.1" xmlns="http://www.w3.org/2000/svg" width="512" height="512">
<path d="M0 0 C19.26244257 10.44315564 32.75602362 28.09664737 39.29296875 48.91015625 C43.23939256 63.17733994 42.83140213 78.30582349 43 93 C43.65516602 92.85852539 44.31033203 92.71705078 44.98535156 92.57128906 C53.21253267 90.84960239 62.12488997 89.15848291 70 93 C72.67028788 95.30943817 74.82091704 97.16964869 75.17700195 100.80908203 C75.77821646 122.38094612 71.83421267 141.42058584 57 158 C56.34515625 158.74765625 55.6903125 159.4953125 55.015625 160.265625 C40.87290403 175.44066137 24.2453758 179.61819108 4 182 C4.33 198.17 4.66 214.34 5 231 C7.97 228.03 10.94 225.06 14 222 C16.61392919 220.26605893 18.99452411 218.7881361 21.75 217.375 C22.43102783 217.00729492 23.11205566 216.63958984 23.8137207 216.26074219 C25.8670003 215.15603137 27.93052714 214.07402389 30 213 C32.39861906 211.75509284 34.79414666 210.50508427 37.1875 209.25 C38.19167969 208.73953125 39.19585937 208.2290625 40.23046875 207.703125 C45.22059735 204.63444225 48.53459634 200.49032386 51.875 195.75 C61.80227109 181.91142134 71.24102278 171.55336119 88.125 166.5625 C98.00387871 165.12846922 107.90322224 165.45161112 117 170 C116.9071875 168.39125 116.9071875 168.39125 116.8125 166.75 C116.85487578 154.75765359 121.70518751 142.65563331 129.8515625 133.88671875 C137.96429941 126.7622607 147.58449903 122.37240757 158.44921875 122.69140625 C170.45883917 124.14433123 179.14214459 129.13401974 186.8125 138.3125 C196.99672228 152.11200304 196.49919171 169.50476924 194.31640625 185.82421875 C185.29370011 243.63508552 158.18978166 297.31322693 132.03103638 348.98036194 C130.47227817 352.06040245 128.93126204 355.1432775 127.43798828 358.25585938 C127.00599121 359.15626953 126.57399414 360.05667969 126.12890625 360.984375 C125.78029541 361.72913086 125.43168457 362.47388672 125.07250977 363.24121094 C124 365 124 365 121 367 C117.57982443 367.39958487 114.12706959 367.5635348 111 366 C110.63648438 366.78503906 110.27296875 367.57007813 109.8984375 368.37890625 C102.87096774 383.06451613 102.87096774 383.06451613 97 386 C96.71125 387.093125 96.4225 388.18625 96.125 389.3125 C94.92662997 393.24049067 94.17771114 394.51864633 91 397 C88.1988678 397.5146637 88.1988678 397.5146637 84.93383789 397.53344727 C83.70899185 397.5492836 82.48414581 397.56511993 81.22218323 397.58143616 C79.90233932 397.57647629 78.58249542 397.57151642 77.22265625 397.56640625 C75.85029173 397.57164331 74.47793082 397.57792009 73.10557556 397.58518982 C70.23142543 397.59559021 67.35777049 397.59103914 64.48364258 397.57641602 C60.80678113 397.5592368 57.13148368 397.58271133 53.45479679 397.61790562 C50.62106542 397.63990639 47.78770669 397.63843182 44.95391655 397.6301403 C42.94149064 397.62892517 40.92908775 397.64883722 38.91676331 397.66908264 C28.7668124 397.5654909 28.7668124 397.5654909 25.65014648 394.63647461 C23.85201588 391.76356259 23.52530339 390.32287625 24 387 C23.36280029 387.16226074 22.72560059 387.32452148 22.0690918 387.49169922 C17.99218465 388.16691365 14.01986919 388.1427579 9.89453125 388.1328125 C9.01528488 388.13376923 8.13603851 388.13472595 7.23014832 388.13571167 C5.37177458 388.13639086 3.51339845 388.1345548 1.6550293 388.13037109 C-1.16037468 388.12505125 -3.97561679 388.13030835 -6.79101562 388.13671875 C-8.60416701 388.1360573 -10.4173183 388.13477475 -12.23046875 388.1328125 C-13.05999557 388.13483673 -13.8895224 388.13686096 -14.7441864 388.13894653 C-20.54628083 388.11619764 -26.23760601 387.66897574 -32 387 C-32.2475 387.9075 -32.495 388.815 -32.75 389.75 C-34.10277709 393.26722044 -35.05736618 394.69497754 -38 397 C-41.02650452 397.50793457 -41.02650452 397.50793457 -44.61352539 397.51757812 C-45.59739227 397.52809204 -45.59739227 397.52809204 -46.60113525 397.53881836 C-48.76707506 397.5564023 -50.93170333 397.5447664 -53.09765625 397.53125 C-54.61258696 397.5339471 -56.12751598 397.53783135 -57.6424408 397.54284668 C-60.82095791 397.54874411 -63.99902544 397.54017988 -67.17749023 397.52148438 C-71.22348168 397.49883022 -75.26840374 397.51172872 -79.3143549 397.53577423 C-82.44683132 397.55034296 -85.57906142 397.54557378 -88.71154594 397.53526306 C-90.2012692 397.53261907 -91.69101579 397.53578234 -93.18071175 397.54518127 C-104.76515534 397.60217605 -115.50044603 396.54737294 -124.22265625 388.1640625 C-129.83758237 381.32742719 -132.36244592 373.12411372 -134.77294922 364.75878906 C-136.12193676 360.62647465 -137.75156302 356.72659832 -139.53125 352.765625 C-140.05457413 351.59521164 -140.05457413 351.59521164 -140.58847046 350.40115356 C-144.26570935 342.26939718 -148.29519215 334.32494595 -152.35110474 326.37734985 C-217.29746978 198.80129891 -217.29746978 198.80129891 -202 148 C-200.31927622 144.39706913 -198.3191974 141.22177165 -196 138 C-194.948125 136.4221875 -194.948125 136.4221875 -193.875 134.8125 C-186.76550352 126.76271528 -176.50742122 123.65074212 -166.25 122.625 C-154.95587313 123.00823385 -146.1818547 128.00204487 -138.29296875 135.65625 C-129.54797462 145.04328167 -126.85482619 156.56002937 -126 169 C-125.20078125 168.7834375 -124.4015625 168.566875 -123.578125 168.34375 C-109.7637909 164.84152445 -97.72864941 164.69905449 -84.91015625 171.68359375 C-78.12774737 175.91690936 -72.37578711 180.12482557 -67.625 186.625 C-66.84253906 187.68332031 -66.06007812 188.74164063 -65.25390625 189.83203125 C-63.86749032 191.78070252 -62.51310904 193.75324269 -61.21484375 195.76171875 C-54.84770251 205.59089896 -46.2522138 209.98821879 -35.98168945 214.94091797 C-28.09165676 218.81051006 -21.11352246 223.6621281 -15 230 C-13.81304582 227.62609164 -13.87924167 226.19755049 -13.88647461 223.55029297 C-13.88655014 222.62948944 -13.88662567 221.70868591 -13.88670349 220.75997925 C-13.89186478 219.76410797 -13.89702606 218.76823669 -13.90234375 217.7421875 C-13.9037587 216.72399933 -13.90517365 215.70581116 -13.90663147 214.6567688 C-13.912241 211.39614965 -13.92479512 208.13559849 -13.9375 204.875 C-13.94251377 202.66796974 -13.94707689 200.46093841 -13.95117188 198.25390625 C-13.96221352 192.83591419 -13.97896095 187.41796195 -14 182 C-15.08176514 181.87592773 -16.16353027 181.75185547 -17.27807617 181.62402344 C-18.72057089 181.45273086 -20.16303341 181.28116694 -21.60546875 181.109375 C-22.3157019 181.02864746 -23.02593506 180.94791992 -23.75769043 180.86474609 C-41.00755949 178.78465852 -56.29410495 170.01459463 -67.625 156.9375 C-77.50220839 144.28068783 -84.32169902 129.22024071 -85 113 C-85.05994141 111.75089844 -85.05994141 111.75089844 -85.12109375 110.4765625 C-85.25259659 105.32474539 -85.02573712 100.82318363 -83 96 C-78.63546511 91.63546511 -74.93499951 90.85666421 -68.9375 90.8125 C-68.08027344 90.79832031 -67.22304687 90.78414063 -66.33984375 90.76953125 C-61.48618932 91.10446179 -56.7695476 92.06474264 -52 93 C-51.98598145 91.67947632 -51.98598145 91.67947632 -51.97167969 90.33227539 C-51.61962331 63.93322439 -50.26734871 39.82477753 -32 19 C-31.41992188 18.26652344 -30.83984375 17.53304687 -30.2421875 16.77734375 C-23.72689795 8.83087136 -11.01761448 -3.82781091 0 0 Z " fill="#BFE2FC" transform="translate(261,115)"/>
<path d="M0 0 C19.26244257 10.44315564 32.75602362 28.09664737 39.29296875 48.91015625 C43.23939256 63.17733994 42.83140213 78.30582349 43 93 C43.65516602 92.85852539 44.31033203 92.71705078 44.98535156 92.57128906 C53.21253267 90.84960239 62.12488997 89.15848291 70 93 C72.67028788 95.30943817 74.82091704 97.16964869 75.17700195 100.80908203 C75.77821646 122.38094612 71.83421267 141.42058584 57 158 C56.34515625 158.74765625 55.6903125 159.4953125 55.015625 160.265625 C40.87290403 175.44066137 24.2453758 179.61819108 4 182 C4.33 198.17 4.66 214.34 5 231 C7.97 228.03 10.94 225.06 14 222 C16.61392919 220.26605893 18.99452411 218.7881361 21.75 217.375 C22.43102783 217.00729492 23.11205566 216.63958984 23.8137207 216.26074219 C25.8670003 215.15603137 27.93052714 214.07402389 30 213 C32.39861906 211.75509284 34.79414666 210.50508427 37.1875 209.25 C38.19167969 208.73953125 39.19585937 208.2290625 40.23046875 207.703125 C45.22059735 204.63444225 48.53459634 200.49032386 51.875 195.75 C61.80227109 181.91142134 71.24102278 171.55336119 88.125 166.5625 C98.00387871 165.12846922 107.90322224 165.45161112 117 170 C116.9071875 168.39125 116.9071875 168.39125 116.8125 166.75 C116.85487578 154.75765359 121.70518751 142.65563331 129.8515625 133.88671875 C137.96429941 126.7622607 147.58449903 122.37240757 158.44921875 122.69140625 C170.45883917 124.14433123 179.14214459 129.13401974 186.8125 138.3125 C196.99672228 152.11200304 196.49919171 169.50476924 194.31640625 185.82421875 C185.29370011 243.63508552 158.18978166 297.31322693 132.03103638 348.98036194 C130.47227817 352.06040245 128.93126204 355.1432775 127.43798828 358.25585938 C127.00599121 359.15626953 126.57399414 360.05667969 126.12890625 360.984375 C125.78029541 361.72913086 125.43168457 362.47388672 125.07250977 363.24121094 C124 365 124 365 121 367 C113.97560976 367.7804878 113.97560976 367.7804878 110.5 365 C108.62677345 361.2535469 108.48961947 358.08304425 109 354 C110.06253458 351.30975287 111.11595486 349.00287068 112.5 346.5 C113.2336175 345.10835986 113.96667332 343.71642351 114.69921875 342.32421875 C115.26842041 341.26146729 115.26842041 341.26146729 115.84912109 340.17724609 C117.74403577 336.59242448 119.52092234 332.94974069 121.3125 329.3125 C124.62117388 322.60324463 124.62117388 322.60324463 126.54296875 319.54296875 C128.124954 316.78191675 129.13779279 314.03301571 130.21386719 311.04833984 C131.44168465 307.84915086 133.03974256 304.84442398 134.625 301.8125 C139.16208974 292.93019277 143.04758133 283.80114012 146.90185547 274.60644531 C147.94306186 272.13514263 149.00124209 269.67199239 150.06640625 267.2109375 C174.50134425 213.09231246 174.50134425 213.09231246 176.078125 155.85546875 C173.23262092 149.54547106 169.4554663 145.57749548 163.125 142.6875 C156.49002744 141.22780604 151.73224893 141.43455207 145.8203125 144.73828125 C140.74580632 148.25558918 137.88614637 153.23503194 136 159 C135.46525909 162.81373214 135.46525909 162.81373214 135.375 166.75 C135.3198948 168.16414939 135.26259569 169.57821497 135.203125 170.9921875 C135.16155273 172.01844238 135.16155273 172.01844238 135.11914062 173.06542969 C134.95715881 175.69564258 134.52548761 178.27183054 134.125 180.875 C133.59095067 186.09768825 135.2475279 189.31990388 137.78515625 193.8046875 C139.33902721 196.61264725 139.80388231 198.79674442 140 202 C140.11021484 203.09441406 140.11021484 203.09441406 140.22265625 204.2109375 C140.94112745 216.48021489 136.93702995 228.65147025 129.28125 238.1640625 C126.6198896 241.47253451 124.25396995 244.92369942 121.875 248.4375 C120.93848927 249.80666677 120.00095569 251.17513437 119.0625 252.54296875 C118.57136719 253.25888184 118.08023437 253.97479492 117.57421875 254.71240234 C94.49267816 288.25366092 94.49267816 288.25366092 91 290 C87.625 290.375 87.625 290.375 84 290 C81.26359263 287.55163551 80.20610793 285.69344725 79.1640625 282.1875 C78.94562353 277.94354285 80.21317212 276.4928577 82.75 273.125 C83.59601983 271.97336655 84.44102845 270.82098974 85.28515625 269.66796875 C85.73262207 269.06774902 86.18008789 268.4675293 86.64111328 267.84912109 C88.90524095 264.76818272 91.03800085 261.5989233 93.1875 258.4375 C96.88926664 253.03268206 100.63728539 247.66201924 104.40844727 242.30541992 C118.88588127 223.58868738 118.88588127 223.58868738 122 201 C119.28875598 193.79327417 114.9653295 189.1930615 108 186 C101.20941011 183.73647004 92.63037901 184.25049759 86 187 C77.3388754 191.64200685 72.42782825 197.74630185 67.1875 205.875 C59.48524407 217.56722911 50.32121157 223.93286818 37.94604492 229.96069336 C37.2419751 230.30366455 36.53790527 230.64663574 35.8125 231 C35.11680908 231.33717041 34.42111816 231.67434082 33.7043457 232.02172852 C28.79561437 234.45520221 24.98231597 237.20731812 21 241 C20.34 241 19.68 241 19 241 C18.7525 241.556875 18.505 242.11375 18.25 242.6875 C17 245 17 245 15.1875 247.1875 C7.43270657 257.15794869 4.52779915 267.54932477 4.64697266 280.06176758 C4.64373238 281.64661957 4.64373238 281.64661957 4.64042664 283.26348877 C4.63735714 285.53926951 4.64089343 287.81506707 4.65044022 290.09082985 C4.66424874 293.6931153 4.65770104 297.29485433 4.64559937 300.8971405 C4.61472352 311.13222979 4.6195796 321.36718797 4.63964844 331.60229492 C4.65055122 337.87740733 4.63741462 344.15210547 4.60975266 350.42716026 C4.60430871 352.81498646 4.6083845 355.20285402 4.62215042 357.59064674 C4.64115083 360.92262885 4.62983019 364.25324725 4.61181641 367.58520508 C4.63182457 369.06352058 4.63182457 369.06352058 4.65223694 370.57170105 C4.59596518 375.24507709 4.53002854 377.31485091 1.59286499 381.11161804 C-2.39951824 384.01926827 -4.15737518 383.69180355 -9 383 C-11.21594238 381.59896851 -11.21594238 381.59896851 -13 379 C-13.58980657 375.62030987 -13.52220555 372.27699367 -13.48242188 368.85400391 C-13.48633438 367.82252228 -13.49024689 366.79104065 -13.49427795 365.728302 C-13.50025793 363.48681881 -13.49707403 361.24529686 -13.4858551 359.00383377 C-13.46860022 355.44567648 -13.47610087 351.88833247 -13.4901123 348.33016968 C-13.51977776 339.4843521 -13.50662785 330.63868847 -13.49493408 321.79284668 C-13.48669453 314.33115776 -13.49483438 306.86982304 -13.52406311 299.40818405 C-13.53110798 295.92184574 -13.51453343 292.43614746 -13.49694824 288.94985962 C-13.498626 270.29490924 -15.80529672 255.68630488 -29.02734375 241.5546875 C-33.93548214 236.7266738 -39.20457643 233.87705583 -45.375 230.9375 C-60.79965552 223.20867855 -70.58490894 215.55940047 -79.9375 200.8125 C-84.60073133 193.71270749 -90.53501268 188.08385092 -98.765625 185.43359375 C-108.29195843 183.58495212 -114.95639751 185.13206917 -123.1875 189.8125 C-126.91917817 192.71491636 -129.2472359 195.74170769 -130.75 200.25 C-131.92036993 213.12406928 -128.45932994 221.61320435 -121 232.0625 C-120.43112061 232.87614014 -119.86224121 233.68978027 -119.27612305 234.52807617 C-117.52673907 237.02543254 -115.76403709 239.51298062 -114 242 C-112.94313909 243.50459667 -111.88711614 245.00978238 -110.83203125 246.515625 C-107.90348592 250.68813342 -104.95549487 254.84654993 -102 259 C-101.52336914 259.6703125 -101.04673828 260.340625 -100.55566406 261.03125 C-99.18409882 262.95916051 -97.81127299 264.88616216 -96.4375 266.8125 C-96.03184814 267.38137939 -95.62619629 267.95025879 -95.20825195 268.53637695 C-93.60261628 270.78235746 -91.99956339 273.00053526 -90.25390625 275.140625 C-88.54695394 277.67180662 -88.46071715 280.02374685 -88.58984375 283.02734375 C-89.33011718 286.58770642 -91.07511893 288.00859161 -94 290 C-97.5 290.625 -97.5 290.625 -101 290 C-105.54975033 286.70143101 -108.00658254 281.93335031 -110.9296875 277.20703125 C-113.23737772 273.63228848 -115.71177634 270.22512925 -118.25 266.8125 C-123.57038864 259.63823111 -128.69703328 252.3499162 -133.68896484 244.94335938 C-134.55250476 243.66332628 -135.41992885 242.38590367 -136.29150391 241.11132812 C-141.32608393 233.73222286 -145.43112623 226.63936715 -148 218 C-148.33 217.01 -148.66 216.02 -149 215 C-149.71222056 204.71366697 -149.32772921 196.27117454 -143.92456055 187.19311523 C-142.79621819 184.51661685 -142.89176696 182.7796065 -143.13671875 179.89453125 C-143.26143555 178.41823242 -143.26143555 178.41823242 -143.38867188 176.91210938 C-143.48728516 175.88923828 -143.58589844 174.86636719 -143.6875 173.8125 C-143.76677734 172.80896484 -143.84605469 171.80542969 -143.92773438 170.77148438 C-144.64548565 162.83491096 -146.00804673 154.47105054 -151 148 C-157.47186611 143.07575405 -162.92044947 141.08479428 -171 142 C-178.01892618 144.56460764 -181.98615436 149.25960008 -185.15332031 155.81176758 C-186.48900173 159.26381847 -186.63490658 162.60312209 -186.5625 166.25 C-186.55444336 167.0435791 -186.54638672 167.8371582 -186.53808594 168.65478516 C-186.0134269 185.40278664 -182.13895087 202.1241185 -177 218 C-176.62617188 219.26070312 -176.25234375 220.52140625 -175.8671875 221.8203125 C-165.20291335 257.33990279 -149.43969413 290.63053885 -133.08953857 323.78955078 C-116.12333525 358.21048068 -116.12333525 358.21048068 -112.96875 373.890625 C-112.15403194 376.24503371 -112.15403194 376.24503371 -109.53125 377.234375 C-108.6959375 377.48703125 -107.860625 377.7396875 -107 378 C-106.34 378.33 -105.68 378.66 -105 379 C-102.92807101 379.11030151 -100.85262472 379.1565117 -98.77783203 379.17358398 C-97.46952423 379.18707382 -96.16121643 379.20056366 -94.81326294 379.21446228 C-93.76119345 379.2220522 -93.76119345 379.2220522 -92.68787003 379.22979546 C-90.4938032 379.24619848 -88.2999082 379.26943637 -86.10592651 379.29469299 C-79.86741696 379.36548462 -73.62883687 379.42556409 -67.39013672 379.47680664 C-63.57518712 379.50862114 -59.7604344 379.54990395 -55.94564438 379.59700203 C-54.49203919 379.61300868 -53.03838865 379.62533644 -51.58472061 379.63390923 C-49.55006039 379.64608016 -47.51549063 379.67126582 -45.48095703 379.69702148 C-44.32338898 379.70732895 -43.16582092 379.71763641 -41.97317505 379.72825623 C-39.07584206 379.99306815 -37.41604123 380.42531826 -35 382 C-32.70031437 385.21955988 -32.44651362 388.12559532 -33 392 C-35.55807672 395.21985527 -37.06282638 396.81291156 -41.14675903 397.62818909 C-42.32825531 397.62915085 -43.50975159 397.63011261 -44.72705078 397.63110352 C-45.7111367 397.64183647 -45.7111367 397.64183647 -46.71510315 397.65278625 C-48.87589034 397.66963967 -51.03459076 397.65028176 -53.1953125 397.62890625 C-54.70881318 397.62973588 -56.22231375 397.63219879 -57.73580933 397.63621521 C-60.9084587 397.63907167 -64.08040164 397.62439884 -67.25292969 397.59692383 C-71.29108146 397.5630153 -75.32795612 397.5688016 -79.36616707 397.5875864 C-82.49437813 397.59823766 -85.62230015 397.5891428 -88.75048447 397.57420158 C-90.23740654 397.56906673 -91.72435943 397.56944363 -93.21127701 397.57574654 C-104.77659728 397.60634414 -115.51670327 396.53174737 -124.22265625 388.1640625 C-129.83758237 381.32742719 -132.36244592 373.12411372 -134.77294922 364.75878906 C-136.12193676 360.62647465 -137.75156302 356.72659832 -139.53125 352.765625 C-140.05457413 351.59521164 -140.05457413 351.59521164 -140.58847046 350.40115356 C-144.26570935 342.26939718 -148.29519215 334.32494595 -152.35110474 326.37734985 C-217.29746978 198.80129891 -217.29746978 198.80129891 -202 148 C-200.31927622 144.39706913 -198.3191974 141.22177165 -196 138 C-194.948125 136.4221875 -194.948125 136.4221875 -193.875 134.8125 C-186.76550352 126.76271528 -176.50742122 123.65074212 -166.25 122.625 C-154.95587313 123.00823385 -146.1818547 128.00204487 -138.29296875 135.65625 C-129.54797462 145.04328167 -126.85482619 156.56002937 -126 169 C-125.20078125 168.7834375 -124.4015625 168.566875 -123.578125 168.34375 C-109.7637909 164.84152445 -97.72864941 164.69905449 -84.91015625 171.68359375 C-78.12774737 175.91690936 -72.37578711 180.12482557 -67.625 186.625 C-66.84253906 187.68332031 -66.06007812 188.74164063 -65.25390625 189.83203125 C-63.86749032 191.78070252 -62.51310904 193.75324269 -61.21484375 195.76171875 C-54.84770251 205.59089896 -46.2522138 209.98821879 -35.98168945 214.94091797 C-28.09165676 218.81051006 -21.11352246 223.6621281 -15 230 C-13.81304582 227.62609164 -13.87924167 226.19755049 -13.88647461 223.55029297 C-13.88655014 222.62948944 -13.88662567 221.70868591 -13.88670349 220.75997925 C-13.89186478 219.76410797 -13.89702606 218.76823669 -13.90234375 217.7421875 C-13.9037587 216.72399933 -13.90517365 215.70581116 -13.90663147 214.6567688 C-13.912241 211.39614965 -13.92479512 208.13559849 -13.9375 204.875 C-13.94251377 202.66796974 -13.94707689 200.46093841 -13.95117188 198.25390625 C-13.96221352 192.83591419 -13.97896095 187.41796195 -14 182 C-15.08176514 181.87592773 -16.16353027 181.75185547 -17.27807617 181.62402344 C-18.72057089 181.45273086 -20.16303341 181.28116694 -21.60546875 181.109375 C-22.3157019 181.02864746 -23.02593506 180.94791992 -23.75769043 180.86474609 C-41.00755949 178.78465852 -56.29410495 170.01459463 -67.625 156.9375 C-77.50220839 144.28068783 -84.32169902 129.22024071 -85 113 C-85.05994141 111.75089844 -85.05994141 111.75089844 -85.12109375 110.4765625 C-85.25259659 105.32474539 -85.02573712 100.82318363 -83 96 C-78.63546511 91.63546511 -74.93499951 90.85666421 -68.9375 90.8125 C-68.08027344 90.79832031 -67.22304687 90.78414063 -66.33984375 90.76953125 C-61.48618932 91.10446179 -56.7695476 92.06474264 -52 93 C-51.98598145 91.67947632 -51.98598145 91.67947632 -51.97167969 90.33227539 C-51.61962331 63.93322439 -50.26734871 39.82477753 -32 19 C-31.41992188 18.26652344 -30.83984375 17.53304687 -30.2421875 16.77734375 C-23.72689795 8.83087136 -11.01761448 -3.82781091 0 0 Z " fill="#030304" transform="translate(261,115)"/>
<path d="M0 0 C7.15462338 3.37328251 11.31855597 8.30898695 14.8046875 15.28125 C15.90504537 19.51911475 16.0849285 23.80176604 16.3046875 28.15625 C16.37474178 29.52879492 16.4476376 30.90119789 16.5234375 32.2734375 C16.56033691 32.94366943 16.59723633 33.61390137 16.63525391 34.30444336 C16.79799835 36.5780791 16.79799835 36.5780791 17.484375 39.96484375 C17.84883176 43.7383046 17.29480333 45.22798244 15.4296875 48.46875 C10.60865298 57.02002632 10.57707482 67.03965301 12.453125 76.578125 C16.43285492 89.43571399 24.60526172 99.9627764 32.453125 110.671875 C36.54437516 116.2664655 40.45241507 121.9804732 44.35546875 127.70703125 C46.99292046 131.57454205 49.71351091 135.38068174 52.46484375 139.16796875 C53.8046875 141.28125 53.8046875 141.28125 54.80078125 143.98828125 C55.13207031 144.74496094 55.46335937 145.50164062 55.8046875 146.28125 C59.39733202 147.47879817 62.03186224 147.61219958 65.8046875 147.28125 C68.40783744 145.9282372 68.40783744 145.9282372 69.8046875 143.28125 C70.40025809 137.66165823 70.07666882 134.74188604 66.50390625 130.10961914 C65.78654297 129.23551392 65.78654297 129.23551392 65.0546875 128.34375 C64.03727457 127.03263546 63.02171679 125.7200797 62.0078125 124.40625 C61.47865234 123.73078125 60.94949219 123.0553125 60.40429688 122.359375 C57.76425582 118.92957807 55.28646038 115.38890772 52.8046875 111.84375 C52.30855957 111.13798828 51.81243164 110.43222656 51.30126953 109.70507812 C49.79930272 107.56595759 48.30134858 105.42408545 46.8046875 103.28125 C46.3087207 102.57226562 45.81275391 101.86328125 45.30175781 101.1328125 C25.78706632 73.18521498 25.78706632 73.18521498 28.4296875 57.59375 C31.35239168 50.55268993 36.03908104 46.53876422 42.8046875 43.28125 C50.37822507 40.90555085 58.70316638 41.37996242 65.72265625 45.03515625 C66.75326172 45.65197266 66.75326172 45.65197266 67.8046875 46.28125 C68.48144531 46.68214844 69.15820312 47.08304687 69.85546875 47.49609375 C75.98104002 51.59963179 79.69069779 57.27243515 83.8046875 63.28125 C84.87879486 64.74639184 85.96116236 66.20554328 87.0546875 67.65625 C87.49296875 68.24148438 87.93125 68.82671875 88.3828125 69.4296875 C89.08664063 70.34621094 89.08664063 70.34621094 89.8046875 71.28125 C90.74248047 72.53421875 90.74248047 72.53421875 91.69921875 73.8125 C96.44621989 79.37855699 103.33600276 82.58356586 109.80859375 85.7890625 C125.19847255 93.43283138 137.11564619 101.46660444 143.91468811 117.97665405 C147.50973742 128.78437594 147.33316897 139.35552526 147.25997734 150.64036942 C147.23788512 154.19657737 147.24187192 157.75194479 147.25245667 161.30819702 C147.27399758 170.12484903 147.25666393 178.94130558 147.23095703 187.75793457 C147.20958802 195.24254847 147.20753714 202.7266192 147.23387337 210.2112236 C147.23822777 213.71478433 147.21359015 217.21740193 147.18833923 220.72085571 C147.193607 222.85899277 147.20032742 224.99712691 147.20874023 227.13525391 C147.19383041 228.10875793 147.17892059 229.08226196 147.16355896 230.08526611 C147.16035551 235.4985985 147.16035551 235.4985985 150.13490295 239.86849976 C153.07136149 241.42236391 155.50927345 241.97469986 158.8046875 242.28125 C150.56197344 247.7763927 137.29845484 247.05389578 127.8046875 245.28125 C125.875 243.85546875 125.875 243.85546875 124.8046875 242.28125 C124.8046875 241.62125 124.8046875 240.96125 124.8046875 240.28125 C121.30104344 239.20570669 118.05678014 239.15053171 114.40307617 239.1394043 C113.10460251 239.13236984 111.80612885 239.12533539 110.4683075 239.11808777 C109.43102792 239.11536393 109.43102792 239.11536393 108.3727932 239.11258507 C106.19873433 239.10538958 104.02489727 239.08970001 101.85090637 239.07124329 C95.67106172 239.01892059 89.49134069 238.97082369 83.3112793 238.95532227 C79.5262866 238.94520778 75.74185641 238.91579872 71.95708656 238.87400246 C70.51992369 238.86173873 69.08268122 238.85656271 67.64546776 238.85880089 C53.59630583 238.87529559 53.59630583 238.87529559 47.8046875 234.28125 C45.29080003 230.68998219 44.50378828 227.05256002 43.5546875 222.84375 C41.91138619 216.00361257 39.07028736 209.9449044 35.9765625 203.66943359 C34.10222903 199.84969819 32.27054654 196.00959816 30.43237305 192.17236328 C28.86843593 188.90885514 27.29952084 185.64777012 25.73046875 182.38671875 C22.98476822 176.66997053 20.28623085 170.93231993 17.60620117 165.18457031 C15.71222376 161.14421714 13.73904979 157.15342784 11.71118164 153.17871094 C8.18583133 146.26652111 5.08650859 139.32627273 2.32421875 132.07421875 C1.15810722 129.06446235 -0.16881451 126.15243096 -1.53125 123.2265625 C-4.56816608 116.59876335 -7.12979059 109.8126237 -9.6328125 102.96875 C-9.87209473 102.31739075 -10.11137695 101.66603149 -10.35791016 100.99493408 C-14.39456097 89.9631498 -17.82784267 78.85130027 -20.65478516 67.44628906 C-21.11795197 65.59111143 -21.6125133 63.74382066 -22.11328125 61.8984375 C-25.34592414 49.85397111 -27.4424176 37.63755669 -27.6328125 25.15625 C-27.65496826 24.38724365 -27.67712402 23.6182373 -27.69995117 22.82592773 C-27.67323135 15.82151789 -25.31914583 10.73182692 -20.7578125 5.46875 C-14.44610216 0.08070459 -8.21833219 -2.69069951 0 0 Z " fill="#E0F3FB" transform="translate(101.1953125,256.71875)"/>
<path d="M0 0 C0.88167847 0.00054382 1.76335693 0.00108765 2.67175293 0.00164795 C16.64805664 0.04122204 29.97110105 0.8835326 43.5625 4.375 C44.81087646 4.68050781 44.81087646 4.68050781 46.08447266 4.9921875 C68.89762499 10.70098175 93.01730306 21.33367708 110.5625 37.375 C112.13185594 40.51371188 111.91451103 42.91355822 111.5625 46.375 C109.23687144 49.52143865 107.39369421 51.01607523 103.8125 52.5625 C99.5926767 52.31904866 97.6680198 50.75300089 94.29296875 48.31640625 C58.8742669 23.13315186 14.75765245 14.080934 -28 20.875 C-69.0581104 28.34606602 -106.09380402 52.68407459 -130.4375 86.375 C-132.74255665 89.73750238 -134.99126273 93.13568701 -137.17749023 96.57666016 C-139.09543279 99.55976948 -140.44201955 101.37801303 -143.4375 103.375 C-146.53377945 103.77451993 -148.47737352 104.02450348 -151.4375 103.375 C-154.5 100.8125 -154.5 100.8125 -156.4375 97.375 C-155.78505779 81.6045397 -136.50360365 61.98633226 -125.4375 51.375 C-124.7775 51.375 -124.1175 51.375 -123.4375 51.375 C-123.4375 50.715 -123.4375 50.055 -123.4375 49.375 C-121.01311877 46.79250695 -118.16986133 44.62187569 -115.4375 42.375 C-114.92815918 41.95476563 -114.41881836 41.53453125 -113.89404297 41.1015625 C-105.8035527 34.46616189 -97.54228223 28.57620068 -88.4375 23.375 C-87.31214844 22.71886719 -86.18679687 22.06273438 -85.02734375 21.38671875 C-71.70376018 13.81837954 -57.27752787 8.46703008 -42.5 4.5 C-41.79262695 4.30897705 -41.08525391 4.1179541 -40.35644531 3.92114258 C-26.97260523 0.54455592 -13.72206369 -0.0318908 0 0 Z " fill="#010101" transform="translate(255.4375,1.625)"/>
<path d="M0 0 C0.65719025 0.00054382 1.31438049 0.00108765 1.9914856 0.00164795 C19.17078663 0.06676941 33.89560725 3.29729329 49.5 10.375 C50.3765625 10.75269531 51.253125 11.13039063 52.15625 11.51953125 C69.70880004 19.58344629 87.62750137 34.89145317 97.5 51.375 C98.37105559 54.50288143 98.03401499 56.01070553 97.5 59.375 C94.9375 62.4375 94.9375 62.4375 91.5 64.375 C87.33409841 64.52117199 85.32939965 64.03426639 82.0625 61.4375 C80.58172551 59.6677939 79.11644783 57.8843521 77.6953125 56.06640625 C62.47663462 36.61373822 39.5609831 23.2906999 15.046875 19.69140625 C-12.42621095 17.24061334 -39.08378584 22.90705842 -60.84985352 40.5078125 C-67.6732932 46.24359346 -73.45223479 52.63926528 -79.07421875 59.5390625 C-81.5 62.375 -81.5 62.375 -84.5 64.375 C-88.32226381 64.23600859 -90.73273278 63.92016355 -93.875 61.6875 C-95.96040212 58.71981237 -96.5 57.01792172 -96.5 53.375 C-93.04429785 46.49589199 -88.11711695 41.29752869 -82.83251953 35.77490234 C-81.70463517 34.58998315 -80.59790568 33.38498226 -79.49609375 32.17578125 C-59.33912627 10.71274676 -28.89224774 -0.04051434 0 0 Z " fill="#010101" transform="translate(255.5,66.625)"/>
<path d="M0 0 C6.15170461 3.69102277 9.57643874 9.57691809 11.953125 16.171875 C17.74512939 57.1648983 -6.42582208 106.0561437 -22.71533203 142.21191406 C-24.03234725 145.13958046 -25.33618577 148.07279232 -26.63671875 151.0078125 C-27.43970967 152.81267557 -28.24307522 154.61737202 -29.046875 156.421875 C-29.4085376 157.23769043 -29.7702002 158.05350586 -30.14282227 158.89404297 C-31.90672885 162.82527391 -33.82476583 166.47641084 -36.046875 170.171875 C-37.0599713 172.49955202 -38.0589624 174.83339833 -39.046875 177.171875 C-40.23652984 179.67116695 -41.48365049 182.14017874 -42.734375 184.609375 C-43.43756116 186.00647963 -44.14068418 187.40361605 -44.84375 188.80078125 C-45.20404297 189.51508301 -45.56433594 190.22938477 -45.93554688 190.96533203 C-47.79378455 194.65486457 -49.63842614 198.35118337 -51.484375 202.046875 C-52.14967686 203.37763553 -52.81503649 204.70836717 -53.48046875 206.0390625 C-53.99738281 207.07289063 -54.51429688 208.10671875 -55.046875 209.171875 C-55.376875 209.831875 -55.706875 210.491875 -56.046875 211.171875 C-56.28020787 217.25703556 -56.28020787 217.25703556 -55.046875 223.171875 C-56.036875 223.171875 -57.026875 223.171875 -58.046875 223.171875 C-58.376875 221.521875 -58.706875 219.871875 -59.046875 218.171875 C-61.03255208 218.23697917 -63.01822917 218.30208333 -65.00390625 218.3671875 C-67.046875 218.171875 -67.046875 218.171875 -70.046875 216.171875 C-70.046875 215.511875 -70.046875 214.851875 -70.046875 214.171875 C-70.706875 214.171875 -71.366875 214.171875 -72.046875 214.171875 C-72.046875 211.531875 -72.046875 208.891875 -72.046875 206.171875 C-71.386875 206.171875 -70.726875 206.171875 -70.046875 206.171875 C-69.964375 205.5325 -69.881875 204.893125 -69.796875 204.234375 C-68.58246831 199.27554766 -66.32472987 194.72758474 -64.046875 190.171875 C-63.386875 190.171875 -62.726875 190.171875 -62.046875 190.171875 C-62.046875 189.181875 -62.046875 188.191875 -62.046875 187.171875 C-61.386875 187.171875 -60.726875 187.171875 -60.046875 187.171875 C-59.985 186.2025 -59.923125 185.233125 -59.859375 184.234375 C-59.28896917 180.03720974 -57.41329228 176.94220981 -55.203125 173.3828125 C-53.94524334 170.97753878 -53.45923139 168.84281977 -53.046875 166.171875 C-52.386875 166.171875 -51.726875 166.171875 -51.046875 166.171875 C-49.97162306 163.51958688 -48.95231349 160.88819046 -48.046875 158.171875 C-47.386875 158.171875 -46.726875 158.171875 -46.046875 158.171875 C-45.93214844 157.48222656 -45.81742187 156.79257812 -45.69921875 156.08203125 C-44.95735126 152.77250264 -43.84288338 149.76818134 -42.609375 146.609375 C-42.17753906 145.49433594 -41.74570312 144.37929688 -41.30078125 143.23046875 C-40.30749679 140.8075973 -39.26402351 138.48728774 -38.046875 136.171875 C-37.386875 136.171875 -36.726875 136.171875 -36.046875 136.171875 C-35.923125 134.934375 -35.799375 133.696875 -35.671875 132.421875 C-35.28941195 129.2956553 -34.74137977 126.88308263 -33.046875 124.171875 C-32.386875 124.171875 -31.726875 124.171875 -31.046875 124.171875 C-30.86125 122.8415625 -30.86125 122.8415625 -30.671875 121.484375 C-30.09550674 118.42962321 -29.23077616 116.02716603 -28.046875 113.171875 C-27.36902508 110.84176591 -26.70270707 108.50827676 -26.046875 106.171875 C-25.39114709 104.16826193 -24.72812206 102.16695567 -24.046875 100.171875 C-23.386875 100.171875 -22.726875 100.171875 -22.046875 100.171875 C-21.85931641 98.88603516 -21.85931641 98.88603516 -21.66796875 97.57421875 C-21.04775732 94.17670832 -20.15579411 91.02368488 -19.109375 87.734375 C-18.75101562 86.59226562 -18.39265625 85.45015625 -18.0234375 84.2734375 C-17.70117188 83.24992187 -17.37890625 82.22640625 -17.046875 81.171875 C-14.8401887 73.77298563 -13.03813546 66.26845853 -11.22265625 58.765625 C-10.95839844 57.6828125 -10.69414062 56.6 -10.421875 55.484375 C-10.18210937 54.49050781 -9.94234375 53.49664062 -9.6953125 52.47265625 C-9.046875 50.171875 -9.046875 50.171875 -8.046875 49.171875 C-7.76177918 44.86649611 -7.81489555 40.54804329 -7.796875 36.234375 C-7.77625 35.03490234 -7.755625 33.83542969 -7.734375 32.59960938 C-7.70212825 25.21107325 -8.52917531 19.10449043 -11.046875 12.171875 C-11.35625 11.016875 -11.665625 9.861875 -11.984375 8.671875 C-12.8317715 6.02958923 -12.8317715 6.02958923 -15.171875 4.796875 C-16.1 4.4875 -16.1 4.4875 -17.046875 4.171875 C-17.046875 3.181875 -17.046875 2.191875 -17.046875 1.171875 C-17.706875 0.841875 -18.366875 0.511875 -19.046875 0.171875 C-12.81357313 -2.94477593 -6.3168903 -2.63618257 0 0 Z " fill="#8FCCFA" transform="translate(427.046875,257.828125)"/>
<path d="M0 0 C7.92177741 3.30989115 13.05533338 10.07349748 17.97265625 16.82421875 C18.44703125 17.44941406 18.92140625 18.07460937 19.41015625 18.71875 C27.86653705 30.84837122 28.88078917 44.710059 28.84423828 58.99780273 C28.8476912 61.91625793 28.9263523 64.82693852 29.0078125 67.74414062 C29.17453051 81.24967383 29.17453051 81.24967383 26.04125977 85.35449219 C23.72051396 86.89484594 21.56488501 87.83504639 18.97265625 88.82421875 C16.89519546 90.35678819 16.89519546 90.35678819 15.16015625 91.94921875 C14.63808594 92.40554687 14.11601562 92.861875 13.578125 93.33203125 C11.66002481 95.11479103 9.8207437 96.96924343 7.97265625 98.82421875 C7.96718781 97.8636834 7.96718781 97.8636834 7.96160889 96.88374329 C7.91978427 90.21615362 7.85043853 83.54925233 7.76513672 76.88208008 C7.73691873 74.3941944 7.71570838 71.90621893 7.70166016 69.41821289 C7.68024304 65.84084068 7.63359605 62.26454902 7.58203125 58.6875 C7.58080261 57.5758699 7.57957397 56.46423981 7.57830811 55.31892395 C7.47359513 49.19493227 7.47359513 49.19493227 5.15332031 43.62182617 C2.9790997 41.53010233 2.9790997 41.53010233 -0.52734375 41.19921875 C-4.0337872 41.53010233 -4.0337872 41.53010233 -6.20800781 43.62182617 C-8.98184473 48.50433004 -8.63061118 53.16157225 -8.63671875 58.6875 C-8.653255 59.8346196 -8.66979126 60.9817392 -8.68682861 62.16362 C-8.73534766 65.82137384 -8.75668926 69.47871178 -8.77734375 73.13671875 C-8.8055 75.61916159 -8.83542693 78.10158503 -8.8671875 80.58398438 C-8.94110787 86.6639869 -8.9927276 92.74387227 -9.02734375 98.82421875 C-14.74609375 94.12890625 -14.74609375 94.12890625 -17.27734375 91.38671875 C-19.75446379 88.74616784 -19.75446379 88.74616784 -22.45483398 87.93383789 C-25.75419516 86.61774177 -27.6408103 85.48489184 -30.02734375 82.82421875 C-31.62610495 77.54767315 -31.16468248 71.81437371 -30.9465332 66.36816406 C-30.84095626 63.72704932 -30.80324774 61.09220925 -30.77929688 58.44921875 C-30.45344388 38.39848467 -25.27849116 21.59878059 -11.02734375 6.82421875 C-3.39423556 -0.29429788 -3.39423556 -0.29429788 0 0 Z " fill="#B0DE4A" transform="translate(257.02734375,134.17578125)"/>
<path d="M0 0 C2.36796454 2.47582214 4.26443033 5.05070424 6 8 C6.37382812 8.62390625 6.74765625 9.2478125 7.1328125 9.890625 C9.20047012 14.92006245 8.75457873 21.22568059 7.34765625 26.3984375 C3.37883035 35.835045 -3.07600047 44.20461355 -9.02807617 52.46020508 C-13.64787489 58.87048935 -18.10544482 65.38833687 -22.56494141 71.91064453 C-24.06973741 74.1015333 -25.58626635 76.28392323 -27.10546875 78.46484375 C-27.61086182 79.19268066 -28.11625488 79.92051758 -28.63696289 80.67041016 C-29.60862558 82.06915806 -30.58295715 83.46605681 -31.56030273 84.86083984 C-33.42752322 87.55567642 -34.95733587 89.87200762 -36 93 C-38.97 93 -41.94 93 -45 93 C-45 92.34 -45 91.68 -45 91 C-45.99 91 -46.98 91 -48 91 C-48.9196476 86.30979721 -49.36070796 83.24927433 -47 79 C-46.0206121 77.97980427 -45.02104551 76.97850195 -44 76 C-42.82425289 73.90010348 -42.82425289 73.90010348 -42 72 C-41.34 72 -40.68 72 -40 72 C-40 71.34 -40 70.68 -40 70 C-39.34 70 -38.68 70 -38 70 C-37.773125 69.154375 -37.54625 68.30875 -37.3125 67.4375 C-35.98096754 63.95015308 -34.38306496 61.53303638 -32.12109375 58.61328125 C-30.80277938 56.87782099 -30.80277938 56.87782099 -30 54 C-29.34 54 -28.68 54 -28 54 C-27.61521484 53.16855469 -27.61521484 53.16855469 -27.22265625 52.3203125 C-25.82449029 49.66692407 -24.18147518 47.31438073 -22.4375 44.875 C-20.03268334 41.54908252 -20.03268334 41.54908252 -18 38 C-17.34 38 -16.68 38 -16 38 C-15.855625 37.38125 -15.71125 36.7625 -15.5625 36.125 C-15 34 -15 34 -14 32 C-13.34 32 -12.68 32 -12 32 C-11.04916501 22.76659029 -10.26745949 14.77252459 -14 6 C-14.66 6 -15.32 6 -16 6 C-16 5.34 -16 4.68 -16 4 C-16.66 4 -17.32 4 -18 4 C-18 3.34 -18 2.68 -18 2 C-18.66 2 -19.32 2 -20 2 C-20 1.34 -20 0.68 -20 0 C-21.4540625 -0.433125 -21.4540625 -0.433125 -22.9375 -0.875 C-26 -2 -26 -2 -27 -4 C-17.16523347 -6.12643601 -8.35492772 -6.10158469 0 0 Z " fill="#90CDF9" transform="translate(376,304)"/>
<path d="M0 0 C0.98071974 12.50417666 -4.5103459 24.97242796 -12.10546875 34.6953125 C-16.57795667 39.85291475 -21.22568342 44.34329668 -27 48 C-27.71285156 48.46277344 -28.42570312 48.92554688 -29.16015625 49.40234375 C-36.66952556 53.7274396 -44.52725189 54.29568967 -53 55 C-53.39465642 40.98969696 -47.79759085 28.32945808 -38.75 17.75 C-28.54656891 6.96449399 -15.13031295 -0.63042971 0 0 Z " fill="#91C81F" transform="translate(319,224)"/>
<path d="M0 0 C8.9815174 -0.70535477 15.15704794 0.60503305 23 5 C23.70898438 5.38414062 24.41796875 5.76828125 25.1484375 6.1640625 C30.61126431 9.33811602 38.68334229 14.0773151 40.75390625 20.24609375 C40.83511719 20.82488281 40.91632813 21.40367187 41 22 C41.66 22 42.32 22 43 22 C48.54180263 32.26372213 53.29919726 42.03210973 53 54 C47.68204343 54.23481886 43.15710824 53.49458482 38.125 51.875 C37.42391113 51.65199219 36.72282227 51.42898438 36.00048828 51.19921875 C30.33071923 49.29923597 25.67243507 46.75804455 21 43 C19.948125 42.21625 18.89625 41.4325 17.8125 40.625 C8.15573363 31.61201805 0.86620856 18.04897144 -0.17578125 4.7578125 C-0.18534144 3.17082177 -0.10556697 1.58350453 0 0 Z " fill="#91C71E" transform="translate(194,225)"/>
<path d="M0 0 C4.76675909 1.74781167 7.52162895 4.44202032 11.16015625 7.921875 C13.52396156 10.1608942 15.93657993 12.1839073 18.5 14.1875 C22.60699068 17.42681659 26.59958117 20.7752126 30.5625 24.1875 C31.15554932 24.69812988 31.74859863 25.20875977 32.35961914 25.73486328 C33.56305643 26.77140526 34.76642552 27.80802642 35.96972656 28.84472656 C38.78237832 31.26240363 41.6078317 33.66477748 44.4375 36.0625 C44.96682129 36.51222168 45.49614258 36.96194336 46.04150391 37.42529297 C48.64477 39.62879757 51.26679944 41.80044414 53.9375 43.921875 C54.9275 44.71078125 55.9175 45.4996875 56.9375 46.3125 C57.81792969 47.00214844 58.69835937 47.69179687 59.60546875 48.40234375 C61.72183225 50.34908977 62.7780186 51.69254855 63.75 54.375 C63.75 58.67395324 63.03072611 60.07468835 60.0625 63.25 C56.30919414 65.65778111 55.09641 66.00652966 50.75 65.375 C48.3525722 63.6748439 46.36998457 62.05656592 44.25 60.0625 C43.01929931 58.95439089 41.78615754 57.84898785 40.55078125 56.74609375 C39.92381348 56.1826123 39.2968457 55.61913086 38.65087891 55.03857422 C35.67923845 52.43791174 32.56606181 50.03253775 29.4375 47.625 C24.78360675 44.01891872 20.31542055 40.2943168 15.953125 36.3359375 C10.7973593 31.74694037 5.39849771 27.41739213 -0.06640625 23.203125 C-0.95199219 22.51734375 -1.83757813 21.8315625 -2.75 21.125 C-3.5440625 20.52171875 -4.338125 19.9184375 -5.15625 19.296875 C-7.48378671 17.16040474 -8.85699524 15.20551447 -10.25 12.375 C-10.33351317 7.69826241 -9.72451041 5.91729761 -6.625 2.375 C-3.25 0.375 -3.25 0.375 0 0 Z " fill="#010101" transform="translate(54.25,110.625)"/>
<path d="M0 0 C4.31850978 1.62962633 5.96391645 3.28676526 8.3125 7.25 C8.5767715 10.88373309 8.23777663 13.02002503 6.01953125 15.96875 C2.11425482 20.05027406 -2.38357728 23.47386152 -6.8203125 26.953125 C-10.15497074 29.6244861 -13.39165218 32.39514295 -16.625 35.1875 C-21.65112132 39.5232052 -26.73383969 43.77277241 -31.890625 47.953125 C-33.96127264 49.65360099 -36.01044229 51.36881447 -38.046875 53.109375 C-38.62107178 53.59978271 -39.19526855 54.09019043 -39.78686523 54.59545898 C-40.89296748 55.54266839 -41.99681682 56.49251792 -43.09790039 57.44555664 C-51.81254192 64.90561995 -51.81254192 64.90561995 -56.75 65.8125 C-60.80324085 65.0363475 -62.21194477 63.50358688 -64.6875 60.25 C-65.75 57.3125 -65.75 57.3125 -65.6875 54.25 C-63.05637989 49.62980345 -59.84790001 46.3624916 -55.75 43.0625 C-54.58446291 42.10046938 -53.41910327 41.13822373 -52.25390625 40.17578125 C-51.66109863 39.69061035 -51.06829102 39.20543945 -50.45751953 38.70556641 C-47.67504575 36.41741348 -44.93272312 34.08258347 -42.1875 31.75 C-41.106956 30.83571862 -40.02622624 29.92165673 -38.9453125 29.0078125 C-36.75051858 27.15088223 -34.55807029 25.29123031 -32.3671875 23.4296875 C-26.35139745 18.32127247 -20.33015913 13.22068333 -14.18359375 8.26953125 C-12.5912439 6.98119811 -11.01834532 5.66817768 -9.47265625 4.32421875 C-6.10562422 1.51297319 -4.47712726 0.30353405 0 0 Z " fill="#010101" transform="translate(460.6875,110.75)"/>
<path d="M0 0 C1.83749565 -0.02893593 1.83749565 -0.02893593 3.71211243 -0.05845642 C5.0557042 -0.07326284 6.3993077 -0.08703638 7.74291992 -0.09985352 C8.41886389 -0.10642534 9.09480785 -0.11299717 9.79123497 -0.11976814 C13.36959109 -0.15235734 16.9479175 -0.17680848 20.52636719 -0.19628906 C23.48611828 -0.21409978 26.44491609 -0.24891283 29.40429688 -0.29882812 C32.97936304 -0.35905653 36.55354575 -0.38976746 40.12909508 -0.39946175 C41.48990853 -0.40801392 42.85069852 -0.42682709 44.21122169 -0.45620537 C54.80609021 -0.67265486 54.80609021 -0.67265486 58.1133728 1.47897339 C60.25796929 3.92603786 61.13913095 6.10212741 61.78588867 9.27124023 C61.14389574 12.28860702 60.36081067 14.02865099 58.10668945 16.15447998 C53.42247107 18.69245063 47.46440746 17.91266984 42.28588867 17.87280273 C40.91495331 17.87617388 39.54402087 17.88102899 38.1730957 17.88729858 C35.30480393 17.89465617 32.43729258 17.88400233 29.5690918 17.8605957 C25.90005374 17.83210622 22.23284431 17.84851652 18.56387329 17.87845802 C15.73439865 17.89656256 12.90535461 17.89075905 10.0758667 17.87781906 C8.06789965 17.87288145 6.05991558 17.88801487 4.05200195 17.9034729 C-6.0686958 17.77323599 -6.0686958 17.77323599 -9.17504883 14.85473633 C-11.22492409 11.59526624 -11.47024059 9.9955158 -10.83911133 6.20874023 C-8.05778695 0.51966763 -6.11601199 0.08975089 0 0 Z " fill="#020304" transform="translate(295.839111328125,494.791259765625)"/>
<path d="M0 0 C5.57779093 3.75052549 9.34690475 8.81217173 13.0625 14.3125 C13.57981689 15.0643457 14.09713379 15.81619141 14.63012695 16.59082031 C15.6427398 18.06562623 16.65130493 19.54322173 17.65527344 21.02392578 C18.77682139 22.67203928 19.92084956 24.30482646 21.0703125 25.93359375 C21.60398437 26.69800781 22.13765625 27.46242188 22.6875 28.25 C23.12449219 28.87390625 23.56148438 29.4978125 24.01171875 30.140625 C25.23498703 32.44210999 25.70889629 34.412867 26 37 C24.45641562 40.93614016 23.55160136 42.63226576 20 45 C16.625 45.4375 16.625 45.4375 13 45 C8.58355778 41.22594938 5.45197692 36.6261117 2.1875 31.875 C-2.06273106 25.69173773 -2.06273106 25.69173773 -6.55859375 19.6875 C-11.77620233 12.99110396 -11.77620233 12.99110396 -12.875 8.125 C-11.14353944 1.94121229 -6.31860367 -1.41846205 0 0 Z " fill="#010101" transform="translate(388,60)"/>
<path d="M0 0 C-3.82517513 2.39073445 -7.59665524 2.55966552 -12 3 C-12 3.66 -12 4.32 -12 5 C-12.66 5 -13.32 5 -14 5 C-14.33 5.99 -14.66 6.98 -15 8 C-16 9 -17 10 -18 11 C-20.82454158 16.24225618 -21.49818546 21.12141159 -21 27 C-20.34 27.99 -19.68 28.98 -19 30 C-19.34641839 33.46418389 -20.03286587 35.04929881 -22 38 C-22.66 38 -23.32 38 -24 38 C-24.66 39.32 -25.32 40.64 -26 42 C-25.34 42 -24.68 42 -24 42 C-22 44 -22 44 -21.875 47.125 C-21.91625 48.07375 -21.9575 49.0225 -22 50 C-26.07441841 48.64186053 -27.32669809 45.92157602 -29.5 42.4375 C-29.9014624 41.79780273 -30.3029248 41.15810547 -30.71655273 40.49902344 C-36.30904443 31.42115551 -38.18009318 23.96254977 -36.375 13.3125 C-33.45229582 6.27143993 -28.76560646 2.25751422 -22 -1 C-15.13388453 -3.19657508 -6.55850041 -2.91488907 0 0 Z " fill="#C7E3F8" transform="translate(166,301)"/>
<path d="M0 0 C0 3.3 0 6.6 0 10 C-0.66 10 -1.32 10 -2 10 C-2 11.98 -2 13.96 -2 16 C-2.66 16 -3.32 16 -4 16 C-4 17.32 -4 18.64 -4 20 C-4.66 20 -5.32 20 -6 20 C-6 21.32 -6 22.64 -6 24 C-7.32 24.33 -8.64 24.66 -10 25 C-10.33 23.68 -10.66 22.36 -11 21 C-11.33 21 -11.66 21 -12 21 C-12 16.71 -12 12.42 -12 8 C-11.34 8 -10.68 8 -10 8 C-10 5.69 -10 3.38 -10 1 C-6.61981469 -0.04005702 -3.5219721 -0.08004482 0 0 Z " fill="#90C81D" transform="translate(316,228)"/>
<path d="M0 0 C0.92145491 11.74855016 -4.07072737 22.13764319 -10 32 C-10.33 30.68 -10.66 29.36 -11 28 C-10.34 28 -9.68 28 -9 28 C-9 26.68 -9 25.36 -9 24 C-8.34 24 -7.68 24 -7 24 C-7 22.68 -7 21.36 -7 20 C-6.34 20 -5.68 20 -5 20 C-5 18.02 -5 16.04 -5 14 C-4.34 14 -3.68 14 -3 14 C-3 10.7 -3 7.4 -3 4 C-12.04235055 4.65091677 -12.04235055 4.65091677 -21 6 C-21 6.66 -21 7.32 -21 8 C-22.98 8.66 -24.96 9.32 -27 10 C-27 10.66 -27 11.32 -27 12 C-30.1635377 14.169283 -33.4124787 15.66749209 -37 17 C-27.06269013 6.44160827 -14.83414976 -0.61808957 0 0 Z " fill="#85A542" transform="translate(319,224)"/>
<path d="M0 0 C8.98694448 -0.70578098 15.13554707 0.64866476 23 5 C23.73992187 5.40347656 24.47984375 5.80695313 25.2421875 6.22265625 C26.84427007 7.12020854 28.42532247 8.05519348 30 9 C29.67 9.66 29.34 10.32 29 11 C27.35 10.34 25.7 9.68 24 9 C24 8.34 24 7.68 24 7 C23.01 7 22.02 7 21 7 C21 6.34 21 5.68 21 5 C19.88625 5.020625 18.7725 5.04125 17.625 5.0625 C14 5 14 5 12 4 C10.29636178 3.77377919 8.58671299 3.59111527 6.875 3.4375 C5.96492187 3.35371094 5.05484375 3.26992187 4.1171875 3.18359375 C3.41851562 3.12300781 2.71984375 3.06242188 2 3 C2.144375 3.59167969 2.28875 4.18335938 2.4375 4.79296875 C3.40822694 8.92529941 4.27593702 12.7229762 4 17 C4.66 17 5.32 17 6 17 C6 18.32 6 19.64 6 21 C6.66 21 7.32 21 8 21 C8 22.32 8 23.64 8 25 C8.99 25.33 9.98 25.66 11 26 C11.33 27.65 11.66 29.3 12 31 C12.66 31 13.32 31 14 31 C13.67 32.32 13.34 33.64 13 35 C4.93960276 25.42501408 -0.84713651 12.70704762 0 0 Z " fill="#89AB45" transform="translate(194,225)"/>
<path d="M0 0 C0.33 0 0.66 0 1 0 C1.33 14.85 1.66 29.7 2 45 C3.65 45 5.3 45 7 45 C7.33 44.34 7.66 43.68 8 43 C8.825 42.71125 9.65 42.4225 10.5 42.125 C13.18259554 41.27117929 13.18259554 41.27117929 13.8125 38.875 C13.874375 38.25625 13.93625 37.6375 14 37 C15.65 37 17.3 37 19 37 C19 25.78 19 14.56 19 3 C19.33 3 19.66 3 20 3 C20.22329729 7.87436991 20.38613882 12.74573961 20.49438477 17.62402344 C20.53951672 19.28112654 20.60084462 20.93787369 20.67895508 22.59375 C21.3130608 36.38658557 21.3130608 36.38658557 18.09057617 40.34619141 C15.77971476 41.87132685 13.54057373 42.9172902 11 44 C8.92532381 45.54489974 8.92532381 45.54489974 7.1875 47.125 C6.66542969 47.58132812 6.14335937 48.03765625 5.60546875 48.5078125 C3.68940011 50.28868408 1.84970573 52.15029427 0 54 C0 36.18 0 18.36 0 0 Z " fill="#B3D174" transform="translate(265,179)"/>
<path d="M0 0 C0.33 0 0.66 0 1 0 C1.09688221 5.44693314 1.12862175 10.63904667 0 16 C-0.66 16 -1.32 16 -2 16 C-2 17.32 -2 18.64 -2 20 C0.81288705 19.85980308 3.62516885 19.71312045 6.4375 19.5625 C7.64116211 19.50352539 7.64116211 19.50352539 8.86914062 19.44335938 C12.75239561 19.5945704 12.75239561 19.5945704 16 18 C17.66617115 17.95936168 19.33388095 17.957279 21 18 C20.3125 19.9375 20.3125 19.9375 19 22 C13.41946662 23.54756854 7.61762471 23.184102 1.875 23.1875 C0.22951172 23.20586914 0.22951172 23.20586914 -1.44921875 23.22460938 C-3.02509766 23.22750977 -3.02509766 23.22750977 -4.6328125 23.23046875 C-6.06971436 23.23663208 -6.06971436 23.23663208 -7.53564453 23.24291992 C-10 23 -10 23 -13 21 C-11.68 20.67 -10.36 20.34 -9 20 C-9.99 19.34 -10.98 18.68 -12 18 C-8.97265625 17.36523438 -8.97265625 17.36523438 -5.9453125 16.73046875 C-3.62953451 16.07691162 -3.62953451 16.07691162 -2 13 C-1.55296766 10.78415454 -1.18536758 8.55158039 -0.875 6.3125 C-0.62363281 4.54326172 -0.62363281 4.54326172 -0.3671875 2.73828125 C-0.24601562 1.83464844 -0.12484375 0.93101562 0 0 Z " fill="#BFD7E9" transform="translate(266,480)"/>
<path d="M0 0 C1 3 1 3 -0.25 6.625 C-2 10 -2 10 -5 11 C-5.144375 11.86625 -5.28875 12.7325 -5.4375 13.625 C-5.95833333 16.75 -6.47916667 19.875 -7 23 C-7.66 23 -8.32 23 -9 23 C-9 36.2 -9 49.4 -9 63 C-9.33 63 -9.66 63 -10 63 C-10.33 64.65 -10.66 66.3 -11 68 C-11.33 68 -11.66 68 -12 68 C-12.07492194 62.66555753 -12.12896171 57.33143054 -12.16479492 51.99658203 C-12.17975449 50.18695735 -12.20012957 48.3773681 -12.22631836 46.56787109 C-12.41509348 33.17594189 -11.80481878 21.52577907 -5.4375 9.4375 C-4.83808594 8.28121094 -4.23867187 7.12492188 -3.62109375 5.93359375 C-2 3 -2 3 0 0 Z " fill="#98B061" transform="translate(239,149)"/>
<path d="M0 0 C0.99 0.33 1.98 0.66 3 1 C2.42277372 5.0236067 1.54818328 8.6151995 0.109375 12.4140625 C-0.26840088 13.41759766 -0.64617676 14.42113281 -1.03540039 15.45507812 C-1.43621826 16.50115234 -1.83703613 17.54722656 -2.25 18.625 C-2.65532959 19.69427734 -3.06065918 20.76355469 -3.47827148 21.86523438 C-6.18411806 28.96828454 -8.9593583 36.03249942 -12 43 C-12.33 43 -12.66 43 -13 43 C-13.32381158 37.6031403 -12.46159726 34.73384089 -10 30 C-9.19279327 27.02556551 -8.57190585 24.02773686 -8 21 C-7.34 21 -6.68 21 -6 21 C-5.79503906 20.14535156 -5.59007812 19.29070312 -5.37890625 18.41015625 C-5.10949219 17.30542969 -4.84007812 16.20070313 -4.5625 15.0625 C-4.29566406 13.96035156 -4.02882813 12.85820312 -3.75390625 11.72265625 C-3 9 -3 9 -2 8 C-1.835 6.845 -1.67 5.69 -1.5 4.5 C-1 1 -1 1 0 0 Z " fill="#93C4E9" transform="translate(421,347)"/>
<path d="M0 0 C5.82567062 8.73850593 1.76266608 23.34230984 -0.15039062 32.98901367 C-1.37532975 39.00532881 -2.66282384 45.00760153 -4 51 C-4.33 51 -4.66 51 -5 51 C-5 47.04 -5 43.08 -5 39 C-4.34 39 -3.68 39 -3 39 C-3.01160156 37.92878906 -3.02320313 36.85757813 -3.03515625 35.75390625 C-3.04453299 34.35677257 -3.05363331 32.95963701 -3.0625 31.5625 C-3.07506836 30.50192383 -3.07506836 30.50192383 -3.08789062 29.41992188 C-3.09653588 27.61306441 -3.05220011 25.80612397 -3 24 C-2.67 23.67 -2.34 23.34 -2 23 C-1.85613896 21.67113927 -1.77323712 20.33551413 -1.71875 19 C-1.66267578 17.7934375 -1.66267578 17.7934375 -1.60546875 16.5625 C-1.57066406 15.716875 -1.53585937 14.87125 -1.5 14 C-1.43139491 12.33315029 -1.35869777 10.66646226 -1.28125 9 C-1.25095703 8.2575 -1.22066406 7.515 -1.18945312 6.75 C-1 5 -1 5 0 4 C0 2.68 0 1.36 0 0 Z " fill="#99C2E2" transform="translate(437,271)"/>
<path d="M0 0 C0.33 0 0.66 0 1 0 C1.01030746 1.20412033 1.02061493 2.40824066 1.03123474 3.64884949 C1.12896762 14.99349035 1.23170169 26.33807634 1.33933926 37.68262768 C1.39451652 43.51504327 1.44792827 49.34746391 1.49731445 55.17993164 C1.54503457 60.80798495 1.59738022 66.43597794 1.65294075 72.06395912 C1.67332963 74.21173921 1.6920484 76.35953582 1.70907402 78.5073452 C1.73319473 81.51431627 1.7632389 84.52117395 1.79467773 87.52807617 C1.8004332 88.41712143 1.80618866 89.30616669 1.81211853 90.22215271 C1.8602933 94.27269935 1.99101708 98.04828983 3 102 C2.01 102 1.02 102 0 102 C0 68.34 0 34.68 0 0 Z " fill="#101619" transform="translate(248,392)"/>
<path d="M0 0 C0.66 0 1.32 0 2 0 C2.602537 6.02536998 2.602537 6.02536998 0.88671875 8.80078125 C-0.34621853 10.25599455 -1.66808933 11.63479157 -3 13 C-3.33 12.34 -3.66 11.68 -4 11 C-4.33 11.66 -4.66 12.32 -5 13 C-6.32 13 -7.64 13 -9 13 C-9.2475 13.61875 -9.495 14.2375 -9.75 14.875 C-11.27221172 17.46275992 -12.16777975 18.05592658 -15 19 C-18.25 19.125 -18.25 19.125 -21 19 C-18.98368922 17.48322567 -16.9641108 15.97396009 -14.921875 14.4921875 C-9.81948731 10.6929276 -5.68197414 6.6272778 -1.62890625 1.72265625 C-1.09136719 1.15417969 -0.55382812 0.58570313 0 0 Z " fill="#BBD4E7" transform="translate(326,323)"/>
<path d="M0 0 C0.33 0 0.66 0 1 0 C1 2.64 1 5.28 1 8 C0.34 8 -0.32 8 -1 8 C-1 10.31 -1 12.62 -1 15 C-1.66 15 -2.32 15 -3 15 C-2.67 16.32 -2.34 17.64 -2 19 C1.63 19.33 5.26 19.66 9 20 C9.33 18.68 9.66 17.36 10 16 C12.97 16 15.94 16 19 16 C12.46914237 21.96295697 3.42186551 22.54348766 -5 23 C-5.62529981 15.02742744 -3.57834116 7.15668232 0 0 Z " fill="#8EAF49" transform="translate(271,256)"/>
<path d="M0 0 C4.62426083 1.86980981 6.38130915 4.8531416 8.79296875 9.078125 C11.46182194 15.53864988 10.86890815 22.27269559 8.5 28.75 C8.005 29.8225 7.51 30.895 7 32 C6.67 32 6.34 32 6 32 C5.32095603 27.77483754 4.85317882 24.11618191 5.5 19.875 C6.15919958 14.76620329 5.82983933 10.4019723 3 6 C2.01 5.34 1.02 4.68 0 4 C0 2.68 0 1.36 0 0 Z " fill="#91BADD" transform="translate(374,304)"/>
<path d="M0 0 C4.24743427 2.56369041 8.18207366 6.64458563 9.65234375 11.4375 C9.75417969 12.01371094 9.85601562 12.58992188 9.9609375 13.18359375 C6.9609375 12.18359375 6.9609375 12.18359375 4.9609375 10.18359375 C4.9609375 8.86359375 4.9609375 7.54359375 4.9609375 6.18359375 C3.6409375 6.18359375 2.3209375 6.18359375 0.9609375 6.18359375 C-0.06010801 5.2050918 -1.0596746 4.20378948 -2.0390625 3.18359375 C-4.14239141 2.46911732 -4.14239141 2.46911732 -6.0390625 2.18359375 C-6.0390625 1.52359375 -6.0390625 0.86359375 -6.0390625 0.18359375 C-7.6890625 0.18359375 -9.3390625 0.18359375 -11.0390625 0.18359375 C-11.0390625 1.50359375 -11.0390625 2.82359375 -11.0390625 4.18359375 C-12.0290625 4.67859375 -12.0290625 4.67859375 -13.0390625 5.18359375 C-15.1640625 4.24609375 -15.1640625 4.24609375 -17.0390625 3.18359375 C-17.0390625 2.52359375 -17.0390625 1.86359375 -17.0390625 1.18359375 C-17.6990625 0.85359375 -18.3590625 0.52359375 -19.0390625 0.18359375 C-12.80179864 -2.93503818 -6.32561155 -2.6127526 0 0 Z " fill="#96BBD8" transform="translate(427.0390625,257.81640625)"/>
<path d="M0 0 C2.97 0.495 2.97 0.495 6 1 C5.67 1.99 5.34 2.98 5 4 C5.99 3.67 6.98 3.34 8 3 C8.12375 3.78375 8.2475 4.5675 8.375 5.375 C8.79117993 8.14057822 8.79117993 8.14057822 11 10 C11.33 9.34 11.66 8.68 12 8 C12.99 8.33 13.98 8.66 15 9 C15.625 12.375 15.625 12.375 16 16 C15.34 16.66 14.68 17.32 14 18 C13.60235737 19.98821313 13.26224651 21.98944339 13 24 C12.67 24 12.34 24 12 24 C11.94972656 22.84371094 11.89945313 21.68742187 11.84765625 20.49609375 C11.19713066 15.29074169 8.65070034 12.06997458 5.4375 8.0625 C0 1.04832714 0 1.04832714 0 0 Z " fill="#C8DEEF" transform="translate(160,376)"/>
<path d="M0 0 C0.33 0 0.66 0 1 0 C1 1.65 1 3.3 1 5 C0.34 5 -0.32 5 -1 5 C-0.67 8.63 -0.34 12.26 0 16 C2.97 16.33 5.94 16.66 9 17 C9.33 15.68 9.66 14.36 10 13 C12.14285714 20.42857143 12.14285714 20.42857143 13 24 C12.01 24 11.02 24 10 24 C9.67 22.35 9.34 20.7 9 19 C6.02148438 19.09765625 6.02148438 19.09765625 3.04296875 19.1953125 C1 19 1 19 -2 17 C-2 16.34 -2 15.68 -2 15 C-2.66 15 -3.32 15 -4 15 C-4 12.36 -4 9.72 -4 7 C-3.34 7 -2.68 7 -2 7 C-1.855625 6.21625 -1.71125 5.4325 -1.5625 4.625 C-1 2 -1 2 0 0 Z " fill="#9DD0F4" transform="translate(359,457)"/>
<path d="M0 0 C0.33 0 0.66 0 1 0 C1.07413521 5.07198888 1.12859451 10.14366268 1.16479492 15.21606445 C1.17988516 16.94170627 1.20035975 18.66730972 1.22631836 20.39282227 C1.26269209 22.87265488 1.27972359 25.35198064 1.29296875 27.83203125 C1.30845261 28.60400345 1.32393646 29.37597565 1.33988953 30.17134094 C1.34158267 35.5552111 1.34158267 35.5552111 -0.44799805 37.88549805 C-0.96015869 38.25328369 -1.47231934 38.62106934 -2 39 C-3.30648871 41.3226466 -4.15307428 43.45922283 -5 46 C-6.32 45.67 -7.64 45.34 -9 45 C-9.4375 42.8125 -9.4375 42.8125 -9 40 C-6.48300375 37.55567293 -3.60995554 35 0 35 C0 23.45 0 11.9 0 0 Z " fill="#3C4C1E" transform="translate(285,182)"/>
<path d="M0 0 C0.33 0 0.66 0 1 0 C1 16.83 1 33.66 1 51 C-0.98 49.35 -2.96 47.7 -5 46 C-5 45.34 -5 44.68 -5 44 C-3.02 43.505 -3.02 43.505 -1 43 C-0.67 28.81 -0.34 14.62 0 0 Z " fill="#9ABC51" transform="translate(247,182)"/>
<path d="M0 0 C2 1 2 1 2.8515625 3.51171875 C3.10679687 4.55972656 3.36203125 5.60773438 3.625 6.6875 C3.88539063 7.72261719 4.14578125 8.75773437 4.4140625 9.82421875 C4.99301494 12.96214097 5.1049677 15.81757007 5 19 C-0.4185766 19.22577402 -4.77487721 18.46670113 -10 17 C-10 16.67 -10 16.34 -10 16 C-6.04 16 -2.08 16 2 16 C1.505 13.710625 1.505 13.710625 1 11.375 C0.2210059 7.51294472 -0.20817384 3.95530288 0 0 Z " fill="#89A947" transform="translate(242,260)"/>
<path d="M0 0 C1.27609323 0.90933009 2.54565553 1.82782853 3.8125 2.75 C4.87404297 3.51570312 4.87404297 3.51570312 5.95703125 4.296875 C8.05020821 6.04185617 9.52623633 7.7126444 11 10 C11 10.66 11 11.32 11 12 C11.66 12 12.32 12 13 12 C13.99 14.31 14.98 16.62 16 19 C15.01 19.33 14.02 19.66 13 20 C12.67 17.69 12.34 15.38 12 13 C9.03 12.67 6.06 12.34 3 12 C2.67 11.01 2.34 10.02 2 9 C2.66 9 3.32 9 4 9 C3.34 7.02 2.68 5.04 2 3 C1.34 3 0.68 3 0 3 C0 2.01 0 1.02 0 0 Z " fill="#8BB831" transform="translate(224,235)"/>
<path d="M0 0 C3.3726681 3.0237714 5.48852299 5.70422324 7 10 C6.9493245 13.3851232 6.54756164 16.66185312 6 20 C5.01 19.34 4.02 18.68 3 18 C2.70703125 15.8359375 2.70703125 15.8359375 2.8125 13.375 C2.83957031 12.55773437 2.86664063 11.74046875 2.89453125 10.8984375 C2.92933594 10.27195312 2.96414062 9.64546875 3 9 C1.68 8.67 0.36 8.34 -1 8 C-1 2 -1 2 0 0 Z " fill="#D6E3E7" transform="translate(109,262)"/>
<path d="M0 0 C1.65 0 3.3 0 5 0 C5.66 1.32 6.32 2.64 7 4 C7.99 4 8.98 4 10 4 C10.99 4 11.98 4 13 4 C13.2475 4.804375 13.495 5.60875 13.75 6.4375 C14.72238859 9.171081 14.72238859 9.171081 17.125 9.8125 C17.74375 9.874375 18.3625 9.93625 19 10 C19 10.66 19 11.32 19 12 C20.32 12 21.64 12 23 12 C23 12.66 23 13.32 23 14 C13.97501962 13.52500103 6.34145153 6.9278786 0 1 C0 0.67 0 0.34 0 0 Z " fill="#88A947" transform="translate(209,262)"/>
<path d="M0 0 C0 0.33 0 0.66 0 1 C-3.3 1 -6.6 1 -10 1 C-10 0.34 -10 -0.32 -10 -1 C-13.04913228 -2.01111093 -13.04913228 -2.01111093 -16 -1 C-18.6723621 -0.86584528 -21.32250488 -0.95681459 -24 -1 C-24.33 -1.66 -24.66 -2.32 -25 -3 C-15.71505583 -5.0075555 -8.18823405 -4.94383942 0 0 Z " fill="#8EB9DC" transform="translate(374,303)"/>
<path d="M0 0 C0.33 0 0.66 0 1 0 C1 16.17 1 32.34 1 49 C1.99 49.33 2.98 49.66 4 50 C2.68 51.32 1.36 52.64 0 54 C0 36.18 0 18.36 0 0 Z " fill="#B9D08A" transform="translate(265,179)"/>
<path d="M0 0 C0.66 0.33 1.32 0.66 2 1 C0.86455941 4.92243112 -0.67854084 8.39543074 -2.5625 12 C-4.45375297 15.68238079 -5.66981015 18.81759528 -6 23 C-6.33 23 -6.66 23 -7 23 C-7.33 20.69 -7.66 18.38 -8 16 C-7.34 16 -6.68 16 -6 16 C-6 12.37 -6 8.74 -6 5 C-5.01 5.33 -4.02 5.66 -3 6 C-2.67 4.68 -2.34 3.36 -2 2 C-1.34 2 -0.68 2 0 2 C0 1.34 0 0.68 0 0 Z " fill="#8BBBE1" transform="translate(376,452)"/>
<path d="M0 0 C0.70125 0.185625 1.4025 0.37125 2.125 0.5625 C5.33888698 1.05156976 7.83560336 0.66231558 11 0 C11 1.65 11 3.3 11 5 C9.68 4.34 8.36 3.68 7 3 C6.67 3.66 6.34 4.32 6 5 C6.99 5 7.98 5 9 5 C9.144375 5.763125 9.28875 6.52625 9.4375 7.3125 C9.9632594 10.08172908 9.9632594 10.08172908 11 13 C10.01 13 9.02 13 8 13 C5.95703125 10.41015625 5.95703125 10.41015625 3.8125 7.0625 C3.09707031 5.96035156 2.38164062 4.85820312 1.64453125 3.72265625 C0 1 0 1 0 0 Z " fill="#C3DCEC" transform="translate(149,360)"/>
<path d="M0 0 C0 5.74068825 -3.85991573 11.64389783 -7.6640625 15.83203125 C-11.37067723 19 -11.37067723 19 -14 19 C-14.33 17.35 -14.66 15.7 -15 14 C-13.6078125 13.9690625 -13.6078125 13.9690625 -12.1875 13.9375 C-8.99303786 13.37155641 -8.99303786 13.37155641 -7.93359375 11.375 C-7.20025229 9.61781467 -6.59224075 7.80962451 -6 6 C-5.01 6 -4.02 6 -3 6 C-2.690625 5.195625 -2.38125 4.39125 -2.0625 3.5625 C-1 1 -1 1 0 0 Z " fill="#BFD4E4" transform="translate(370,482)"/>
<path d="M0 0 C0.33 0 0.66 0 1 0 C1 1.65 1 3.3 1 5 C0.34 5 -0.32 5 -1 5 C-1.66 6.98 -2.32 8.96 -3 11 C-3.66 11 -4.32 11 -5 11 C-5.268125 12.0725 -5.53625 13.145 -5.8125 14.25 C-6.86227827 17.56508928 -7.74612328 19.43877646 -10 22 C-10.76953125 19.41796875 -10.76953125 19.41796875 -11 16 C-9.65030328 13.50847741 -8.39197565 11.52447367 -6.6875 9.3125 C-6.27048828 8.74466797 -5.85347656 8.17683594 -5.42382812 7.59179688 C-4.29304634 6.05342867 -3.1471808 4.52617836 -2 3 C-1.34 2.01 -0.68 1.02 0 0 Z " fill="#0E1829" transform="translate(351,378)"/>
<path d="M0 0 C0.99 0 1.98 0 3 0 C3 2.31 3 4.62 3 7 C2.34 7 1.68 7 1 7 C1.33 7.99 1.66 8.98 2 10 C1.01 11.485 1.01 11.485 0 13 C-0.66 13 -1.32 13 -2 13 C-2 12.34 -2 11.68 -2 11 C-3.32 12.32 -4.64 13.64 -6 15 C-6.66 14.67 -7.32 14.34 -8 14 C-7.38511719 13.23816406 -7.38511719 13.23816406 -6.7578125 12.4609375 C-3.60713656 8.4359113 -1.26203939 5.04815754 0 0 Z " fill="#B9D3E5" transform="translate(397,339)"/>
<path d="M0 0 C0.33 0 0.66 0 1 0 C1 11.22 1 22.44 1 34 C2.32 34.33 3.64 34.66 5 35 C6 36 7 37 8 38 C10.10332891 38.71447643 10.10332891 38.71447643 12 39 C11.67 39.99 11.34 40.98 11 42 C6.58295238 40.32996939 3.23603256 38.47644162 0 35 C-1.4154666 28.98255375 -1.04296162 23.19558479 -0.6875 17.0625 C-0.6322704 15.40836552 -0.58208934 13.75405429 -0.53710938 12.09960938 C-0.41637805 8.062018 -0.226963 4.03295786 0 0 Z " fill="#BEE068" transform="translate(228,182)"/>
<path d="M0 0 C10.59722394 -0.52117495 19.36485252 1.74013664 28 8 C27.67 8.66 27.34 9.32 27 10 C25.35 9.34 23.7 8.68 22 8 C22 7.34 22 6.68 22 6 C21.01 6 20.02 6 19 6 C19 5.34 19 4.68 19 4 C17.88625 4.020625 16.7725 4.04125 15.625 4.0625 C12 4 12 4 10 3 C8.29636178 2.77377919 6.58671299 2.59111527 4.875 2.4375 C3.96492187 2.35371094 3.05484375 2.26992187 2.1171875 2.18359375 C1.41851562 2.12300781 0.71984375 2.06242188 0 2 C0 1.34 0 0.68 0 0 Z " fill="#8FB740" transform="translate(196,226)"/>
<path d="M0 0 C0.33 0.66 0.66 1.32 1 2 C1.99 2 2.98 2 4 2 C2.91103333 7.75762166 1.70663707 13.39247819 0 19 C-0.66 19 -1.32 19 -2 19 C-2.02688151 17.35425434 -2.04634123 15.70838587 -2.0625 14.0625 C-2.07410156 13.14597656 -2.08570313 12.22945313 -2.09765625 11.28515625 C-2 9 -2 9 -1 8 C-0.76924918 6.65252916 -0.58846937 5.29622435 -0.4375 3.9375 C-0.293125 2.638125 -0.14875 1.33875 0 0 Z " fill="#91C2EA" transform="translate(428,320)"/>
<path d="M0 0 C0.33 0 0.66 0 1 0 C1.05815112 4.39577761 1.09364767 8.79145598 1.125 13.1875 C1.14175781 14.43337891 1.15851563 15.67925781 1.17578125 16.96289062 C1.18222656 18.16494141 1.18867188 19.36699219 1.1953125 20.60546875 C1.20578613 21.71043701 1.21625977 22.81540527 1.22705078 23.95385742 C0.99727629 27.03654165 0.3081849 29.21840962 -1 32 C-1.33 32 -1.66 32 -2 32 C-1.86055132 27.79142976 -1.71231417 23.583213 -1.5625 19.375 C-1.52318359 18.18519531 -1.48386719 16.99539063 -1.44335938 15.76953125 C-1.40146484 14.61582031 -1.35957031 13.46210938 -1.31640625 12.2734375 C-1.27974854 11.21560059 -1.24309082 10.15776367 -1.20532227 9.06787109 C-0.99937941 5.99072727 -0.55819179 3.0313191 0 0 Z " fill="#B4E3FF" transform="translate(419,280)"/>
<path d="M0 0 C2.02752537 3.04128805 2.25479962 3.66863562 2.265625 7.08984375 C2.26949219 8.26643555 2.26949219 8.26643555 2.2734375 9.46679688 C2.26570313 10.28212891 2.25796875 11.09746094 2.25 11.9375 C2.25773437 12.74896484 2.26546875 13.56042969 2.2734375 14.39648438 C2.27085937 15.18216797 2.26828125 15.96785156 2.265625 16.77734375 C2.26336914 17.49140381 2.26111328 18.20546387 2.25878906 18.94116211 C1.9619308 21.30286559 1.16635976 22.94091751 0 25 C-1.31899228 21.01161858 -1.14712869 16.96162876 -1.125 12.8125 C-1.12886719 12.07580078 -1.13273437 11.33910156 -1.13671875 10.58007812 C-1.12668491 5.12668491 -1.12668491 5.12668491 0 4 C0 2.68 0 1.36 0 0 Z " fill="#86AFD0" transform="translate(437,271)"/>
<path d="M0 0 C1 3 1 3 -0.25 6.625 C-2 10 -2 10 -5 11 C-5.144375 11.86625 -5.28875 12.7325 -5.4375 13.625 C-5.95833333 16.75 -6.47916667 19.875 -7 23 C-7.66 23 -8.32 23 -9 23 C-9.33 24.32 -9.66 25.64 -10 27 C-10.8923369 16.7381256 -5.3452313 8.3741957 0 0 Z " fill="#9FBA67" transform="translate(239,149)"/>
<path d="M0 0 C0.99 0.33 1.98 0.66 3 1 C2.57847656 1.51949219 2.15695313 2.03898437 1.72265625 2.57421875 C0.90087891 3.62029297 0.90087891 3.62029297 0.0625 4.6875 C-0.48277344 5.37199219 -1.02804688 6.05648438 -1.58984375 6.76171875 C-4.46272071 11.32171459 -4.11167333 16.05095368 -4.0625 21.3125 C-4.05347656 22.56675781 -4.04445312 23.82101562 -4.03515625 25.11328125 C-4.02355469 26.06589844 -4.01195312 27.01851563 -4 28 C-4.66 27.67 -5.32 27.34 -6 27 C-6 20.07 -6 13.14 -6 6 C-5.34 6 -4.68 6 -4 6 C-4 5.34 -4 4.68 -4 4 C-3.34 4 -2.68 4 -2 4 C-1.34 2.68 -0.68 1.36 0 0 Z " fill="#101925" transform="translate(134,304)"/>
<path d="M0 0 C-0.71285156 0.4846875 -1.42570312 0.969375 -2.16015625 1.46875 C-8.29758365 5.76412314 -13.39057516 10.08483365 -18 16 C-19 13 -19 13 -18.0625 10.8125 C-17.5365625 9.9153125 -17.5365625 9.9153125 -17 9 C-16.34 9 -15.68 9 -15 9 C-14.34 7.68 -13.68 6.36 -13 5 C-11.68 5 -10.36 5 -9 5 C-9 4.34 -9 3.68 -9 3 C-8.34 3 -7.68 3 -7 3 C-6.67 2.01 -6.34 1.02 -6 0 C-3.50907189 -1.24546405 -2.58919267 -0.7767578 0 0 Z " fill="#0E1D03" transform="translate(295,231)"/>
<path d="M0 0 C2.37184142 3.55776212 2.29824394 5.28020607 2.3125 9.5 C2.32925781 10.6446875 2.34601563 11.789375 2.36328125 12.96875 C2 16 2 16 0.48046875 17.90625 C-0.00808594 18.2671875 -0.49664062 18.628125 -1 19 C-2.27567351 12.23893038 -1.48725585 6.68650564 0 0 Z " fill="#BED9EF" transform="translate(402,317)"/>
<path d="M0 0 C0.66 0.66 1.32 1.32 2 2 C-4.15034169 11.59453303 -4.15034169 11.59453303 -8 15 C-8.70703125 13.32421875 -8.70703125 13.32421875 -9 11 C-7.63671875 8.45703125 -7.63671875 8.45703125 -5.6875 5.8125 C-5.05199219 4.93207031 -4.41648437 4.05164063 -3.76171875 3.14453125 C-2 1 -2 1 0 0 Z " fill="#96BEE1" transform="translate(349,377)"/>
<path d="M0 0 C0.99 0.33 1.98 0.66 3 1 C3.06058594 1.66386719 3.12117188 2.32773437 3.18359375 3.01171875 C3.79863507 9.54908081 3.79863507 9.54908081 5 16 C4.01 16 3.02 16 2 16 C-0.40452479 13.50959933 -1.0083895 11.66370242 -0.96484375 8.21875 C-0.71286952 5.46477819 -0.39777069 2.73647066 0 0 Z " fill="#BFD4E5" transform="translate(395,290)"/>
<path d="M0 0 C0.33 0 0.66 0 1 0 C1 2.97 1 5.94 1 9 C0.34 9 -0.32 9 -1 9 C-0.67 11.31 -0.34 13.62 0 16 C-1.98 16.66 -3.96 17.32 -6 18 C-4.41039668 11.76559832 -2.72399099 5.83712355 0 0 Z " fill="#0D1622" transform="translate(423,352)"/>
<path d="M0 0 C0.66 0.33 1.32 0.66 2 1 C1.34 3.64 0.68 6.28 0 9 C-0.66 9 -1.32 9 -2 9 C-2 10.98 -2 12.96 -2 15 C-2.99 15.33 -3.98 15.66 -5 16 C-5.33 16.66 -5.66 17.32 -6 18 C-6.66 18 -7.32 18 -8 18 C-6.65150163 13.64029169 -4.95092154 9.68658562 -2.875 5.625 C-2.33617187 4.56539063 -1.79734375 3.50578125 -1.2421875 2.4140625 C-0.83226562 1.61742187 -0.42234375 0.82078125 0 0 Z " fill="#0A1323" transform="translate(388,433)"/>
<path d="M0 0 C0.66 0.33 1.32 0.66 2 1 C-2.23579416 6.07265319 -6.53860413 11.19575591 -12 15 C-12.66 15 -13.32 15 -14 15 C-13.67 14.01 -13.34 13.02 -13 12 C-12.01 12 -11.02 12 -10 12 C-10 11.34 -10 10.68 -10 10 C-9.34 10 -8.68 10 -8 10 C-8.020625 9.195625 -8.04125 8.39125 -8.0625 7.5625 C-8 5 -8 5 -7 4 C-5.33382885 3.95936168 -3.66611905 3.957279 -2 4 C-2 3.34 -2 2.68 -2 2 C-1.34 2 -0.68 2 0 2 C0 1.34 0 0.68 0 0 Z " fill="#8BB442" transform="translate(306,256)"/>
<path d="M0 0 C0.66 0.99 1.32 1.98 2 3 C0.71053695 4.79325326 -0.58164352 6.58455278 -1.875 8.375 C-2.95394531 9.87160156 -2.95394531 9.87160156 -4.0546875 11.3984375 C-6 14 -6 14 -8 16 C-7.15446037 10.58854637 -5.94568827 4.77891499 -1.8125 1 C-1.214375 0.67 -0.61625 0.34 0 0 Z " fill="#90C4EA" transform="translate(360,361)"/>
<path d="M0 0 C0.33 0 0.66 0 1 0 C1 2.31 1 4.62 1 7 C0.34 7 -0.32 7 -1 7 C-1.33 7.99 -1.66 8.98 -2 10 C-2.99 10.33 -3.98 10.66 -5 11 C-5.73323796 13.01508358 -5.73323796 13.01508358 -6 15 C-6.99 14.67 -7.98 14.34 -9 14 C-6.28454429 9.07195074 -3.39301052 4.49344636 0 0 Z " fill="#BCD4E8" transform="translate(367,385)"/>
<path d="M0 0 C-0.33 1.65 -0.66 3.3 -1 5 C-1.680625 4.175 -2.36125 3.35 -3.0625 2.5 C-5.81838338 -0.27103637 -5.81838338 -0.27103637 -9.5 -0.625 C-13.80649943 0.14401776 -15.26057998 1.67949088 -18 5 C-18 3.35 -18 1.7 -18 0 C-17.34 0 -16.68 0 -16 0 C-16 -0.66 -16 -1.32 -16 -2 C-10.21725802 -3.4456855 -5.35481909 -2.67740954 0 0 Z " fill="#AACC65" transform="translate(266,176)"/>
<path d="M0 0 C0.99 1.32 1.98 2.64 3 4 C2.01 4.66 1.02 5.32 0 6 C0.33 6.66 0.66 7.32 1 8 C-0.175625 7.690625 -0.175625 7.690625 -1.375 7.375 C-2.674375 7.189375 -2.674375 7.189375 -4 7 C-4.66 7.66 -5.32 8.32 -6 9 C-6.33 8.67 -6.66 8.34 -7 8 C-7 8.33 -7 8.66 -7 9 C-8.98 9 -10.96 9 -13 9 C-12.67 8.01 -12.34 7.02 -12 6 C-10.0390625 5.41015625 -10.0390625 5.41015625 -7.625 5.0625 C-3.83423458 4.38795155 -3.83423458 4.38795155 -0.9375 1.875 C-0.628125 1.25625 -0.31875 0.6375 0 0 Z " fill="#B6CCDE" transform="translate(357,399)"/>
<path d="M0 0 C3 3.75 3 3.75 3 6 C3.66 6 4.32 6 5 6 C7 8 7 8 7.125 11.125 C7.08375 12.07375 7.0425 13.0225 7 14 C3.33838422 12.77946141 2.83729526 11.63217696 0.8125 8.4375 C0.28269531 7.61121094 -0.24710938 6.78492188 -0.79296875 5.93359375 C-1.19128906 5.29550781 -1.58960938 4.65742188 -2 4 C-1.34 3.67 -0.68 3.34 0 3 C0 2.01 0 1.02 0 0 Z " fill="#C3D8E9" transform="translate(137,337)"/>
<path d="M0 0 C0.66 0 1.32 0 2 0 C0.98474039 8.99229943 -2.7745983 16.15928135 -7 24 C-7.33 22.68 -7.66 21.36 -8 20 C-7.34 20 -6.68 20 -6 20 C-6 18.68 -6 17.36 -6 16 C-5.34 16 -4.68 16 -4 16 C-4 14.68 -4 13.36 -4 12 C-3.34 12 -2.68 12 -2 12 C-2 10.02 -2 8.04 -2 6 C-1.34 6 -0.68 6 0 6 C0 4.02 0 2.04 0 0 Z " fill="#8FB14E" transform="translate(316,232)"/>
<path d="M0 0 C1.0528418 0.07831055 1.0528418 0.07831055 2.12695312 0.15820312 C3.85588054 0.28757865 5.58425355 0.42432531 7.3125 0.5625 C7.3125 0.8925 7.3125 1.2225 7.3125 1.5625 C6.00925781 1.72685547 6.00925781 1.72685547 4.6796875 1.89453125 C-3.91606045 3.01946426 -3.91606045 3.01946426 -11.6875 6.5625 C-11.3575 4.5825 -11.0275 2.6025 -10.6875 0.5625 C-6.99441024 -0.66852992 -3.80699288 -0.30925152 0 0 Z " fill="#131B2B" transform="translate(354.6875,297.4375)"/>
<path d="M0 0 C5.10557473 3.71314526 7.55426749 7.20217529 10 13 C9.01 13.495 9.01 13.495 8 14 C8 13.34 8 12.68 8 12 C7.34 12 6.68 12 6 12 C6 11.34 6 10.68 6 10 C5.34 10 4.68 10 4 10 C1.1605948 6.32547562 0 4.73113419 0 0 Z " fill="#A8C866" transform="translate(268,144)"/>
<path d="M0 0 C1.32 0.33 2.64 0.66 4 1 C-0.53669968 4.01679014 -4.68972746 6.53967505 -10 8 C-9.1875 5.0625 -9.1875 5.0625 -8 2 C-5 1 -5 1 -2.8125 1.9375 C-1.9153125 2.4634375 -1.9153125 2.4634375 -1 3 C-0.67 2.01 -0.34 1.02 0 0 Z " fill="#0E131E" transform="translate(309,336)"/>
<path d="M0 0 C2.26171875 -0.25 2.26171875 -0.25 5 0 C7.01953125 1.75 7.01953125 1.75 8.8125 4 C9.41707031 4.7425 10.02164063 5.485 10.64453125 6.25 C11.09183594 6.8275 11.53914062 7.405 12 8 C11.34 8.66 10.68 9.32 10 10 C9.34 10 8.68 10 8 10 C7.9175 9.38125 7.835 8.7625 7.75 8.125 C7.19396046 5.86527098 7.19396046 5.86527098 5.1875 4.8125 C3.13623242 4.05060061 1.13845369 3.45824008 -1 3 C-0.67 2.01 -0.34 1.02 0 0 Z " fill="#D8E3E5" transform="translate(169,306)"/>
<path d="M0 0 C0 0.66 0 1.32 0 2 C-1.65 2 -3.3 2 -5 2 C-5 3.32 -5 4.64 -5 6 C-5.99 6.495 -5.99 6.495 -7 7 C-9.125 6.0625 -9.125 6.0625 -11 5 C-11 4.34 -11 3.68 -11 3 C-11.66 2.67 -12.32 2.34 -13 2 C-8.50343896 -0.24828052 -4.92127034 -0.16682272 0 0 Z " fill="#88B2D2" transform="translate(421,256)"/>
<path d="M0 0 C2.64 0 5.28 0 8 0 C7.66086666 3.16524451 7.02752805 3.97600118 4.5625 6.125 C3.716875 6.74375 2.87125 7.3625 2 8 C1.34 8.66 0.68 9.32 0 10 C0 6.66666667 0 3.33333333 0 0 Z " fill="#0A0C12" transform="translate(400,256)"/>
<path d="M0 0 C0.66 0.99 1.32 1.98 2 3 C1.34 3 0.68 3 0 3 C-0.12375 3.61875 -0.2475 4.2375 -0.375 4.875 C-1 7 -1 7 -3 9 C-3.165 9.66 -3.33 10.32 -3.5 11 C-4 13 -4 13 -6 15 C-6.99 14.34 -7.98 13.68 -9 13 C-6.03 8.71 -3.06 4.42 0 0 Z " fill="#B4C6DB" transform="translate(387,356)"/>
<path d="M0 0 C0.7109375 1.7109375 0.7109375 1.7109375 1 4 C-0.3984375 6.2890625 -0.3984375 6.2890625 -2.375 8.625 C-4.95254617 11.63938867 -4.95254617 11.63938867 -7 15 C-7.66 15 -8.32 15 -9 15 C-9 15.66 -9 16.32 -9 17 C-10.32 16.67 -11.64 16.34 -13 16 C-12.48050781 15.5153125 -11.96101563 15.030625 -11.42578125 14.53125 C-6.77117839 10.05732489 -3.12632422 5.65143224 0 0 Z " fill="#122405" transform="translate(311,251)"/>
<path d="M0 0 C2.9555377 2.75170751 5.11563315 5.41970299 7 9 C7 9.66 7 10.32 7 11 C7.99 11.33 8.98 11.66 10 12 C8.68 12.33 7.36 12.66 6 13 C5.566875 12.175 5.13375 11.35 4.6875 10.5 C4.130625 9.675 3.57375 8.85 3 8 C2.01 8 1.02 8 0 8 C-0.79953138 4.71303767 -1.09658936 3.28976808 0 0 Z " fill="#CEDADC" transform="translate(150,392)"/>
<path d="M0 0 C3.33193619 2.69728168 4.60371996 6.02060187 6 10 C5.6875 12.4375 5.6875 12.4375 5 14 C4.01 14 3.02 14 2 14 C1.93941406 13.38511719 1.87882812 12.77023437 1.81640625 12.13671875 C1.73261719 11.32847656 1.64882813 10.52023437 1.5625 9.6875 C1.48128906 8.88699219 1.40007812 8.08648437 1.31640625 7.26171875 C1.04734307 4.83912821 1.04734307 4.83912821 0 2 C0 1.34 0 0.68 0 0 Z " fill="#192027" transform="translate(394,301)"/>
<path d="M0 0 C0.33 0 0.66 0 1 0 C1.08165496 2.20770805 1.13948488 4.41630425 1.1875 6.625 C1.22230469 7.85476563 1.25710938 9.08453125 1.29296875 10.3515625 C0.9787947 14.26407664 -0.03093467 16.64070218 -2 20 C-3.31052767 15.69577494 -2.45785552 12.0629466 -1.5625 7.75 C-1.41490234 7.00492187 -1.26730469 6.25984375 -1.11523438 5.4921875 C-0.7511306 3.65992335 -0.37658591 1.82973947 0 0 Z " fill="#1B2C3F" transform="translate(437,296)"/>
<path d="M0 0 C3.3 0 6.6 0 10 0 C10 1.32 10 2.64 10 4 C8.68 4 7.36 4 6 4 C6 3.34 6 2.68 6 2 C5.34 2 4.68 2 4 2 C3.34 3.32 2.68 4.64 2 6 C1.34 5.34 0.68 4.68 0 4 C0 2.68 0 1.36 0 0 Z " fill="#8BC612" transform="translate(196,228)"/>
<path d="M0 0 C0.66 0.66 1.32 1.32 2 2 C0.02 5.96 -1.96 9.92 -4 14 C-4.66 14 -5.32 14 -6 14 C-5.33333333 11.33333333 -4.66666667 8.66666667 -4 6 C-3.34 6 -2.68 6 -2 6 C-2 4.68 -2 3.36 -2 2 C-1.34 2 -0.68 2 0 2 C0 1.34 0 0.68 0 0 Z " fill="#98C1E2" transform="translate(394,416)"/>
<path d="M0 0 C0.33 0 0.66 0 1 0 C1 2.64 1 5.28 1 8 C0.34 8 -0.32 8 -1 8 C-1 10.31 -1 12.62 -1 15 C-1.66 15 -2.32 15 -3 15 C-4.18956883 10.84773144 -3.78960563 8.61274007 -2.0625 4.6875 C-1.68222656 3.80449219 -1.30195313 2.92148437 -0.91015625 2.01171875 C-0.60980469 1.34785156 -0.30945313 0.68398438 0 0 Z " fill="#88AF35" transform="translate(271,256)"/>
<path d="M0 0 C0.33 0 0.66 0 1 0 C1 2.31 1 4.62 1 7 C0.360625 7.226875 -0.27875 7.45375 -0.9375 7.6875 C-3.27087348 8.83177823 -3.27087348 8.83177823 -3.5625 11.5 C-3.7790625 12.7375 -3.7790625 12.7375 -4 14 C-4.99 14.66 -5.98 15.32 -7 16 C-5.35433477 10.31497465 -2.70967216 5.23318364 0 0 Z " fill="#0C172A" transform="translate(379,451)"/>
<path d="M0 0 C0.66 0 1.32 0 2 0 C2 2.64 2 5.28 2 8 C1.34 8 0.68 8 0 8 C0 8.66 0 9.32 0 10 C-0.66 10 -1.32 10 -2 10 C-2.33 10.66 -2.66 11.32 -3 12 C-2.14285714 3.42857143 -2.14285714 3.42857143 0 0 Z " fill="#9ACEF5" transform="translate(394,382)"/>
<path d="M0 0 C5.15464734 0.48324819 8.81550319 3.18610761 13 6 C12.34 6.66 11.68 7.32 11 8 C10.21625 7.649375 9.4325 7.29875 8.625 6.9375 C7.75875 6.628125 6.8925 6.31875 6 6 C5.01 6.495 5.01 6.495 4 7 C3.566875 5.5459375 3.566875 5.5459375 3.125 4.0625 C2.35785318 0.89335797 2.35785318 0.89335797 0 0 Z " fill="#DAE6E9" transform="translate(193,334)"/>
<path d="M0 0 C2.31 0 4.62 0 7 0 C7 2.64 7 5.28 7 8 C6.01 8 5.02 8 4 8 C4 6.68 4 5.36 4 4 C2.68 4 1.36 4 0 4 C0 2.68 0 1.36 0 0 Z " fill="#769831" transform="translate(312,224)"/>
<path d="M0 0 C0.66 0 1.32 0 2 0 C1.77211278 1.96102954 1.51694943 3.91890505 1.25 5.875 C1.11078125 6.96554687 0.9715625 8.05609375 0.828125 9.1796875 C0 12 0 12 -2.078125 13.3828125 C-2.71234375 13.58648437 -3.3465625 13.79015625 -4 14 C-3.5020163 10.26512223 -3.12508244 8.18762365 -1 5 C-0.61500109 3.34450469 -0.27206865 1.6777567 0 0 Z " fill="#9CD2F6" transform="translate(374,424)"/>
<path d="M0 0 C0.33 0 0.66 0 1 0 C0.88557539 1.60495567 0.75805306 3.20898119 0.625 4.8125 C0.55539062 5.70582031 0.48578125 6.59914063 0.4140625 7.51953125 C0 10 0 10 -2 13 C-2.99 13 -3.98 13 -5 13 C-3.58192622 8.52761347 -1.88695626 4.28853694 0 0 Z " fill="#101C2E" transform="translate(407,392)"/>
<path d="M0 0 C0.66 0.33 1.32 0.66 2 1 C1.1875 4.4375 1.1875 4.4375 0 8 C-0.99 8.33 -1.98 8.66 -3 9 C-3.33 9.99 -3.66 10.98 -4 12 C-4.99 11.67 -5.98 11.34 -7 11 C-4.69 7.37 -2.38 3.74 0 0 Z " fill="#BBCFE1" transform="translate(376,372)"/>
<path d="M0 0 C2.32472205 2.85306797 3.7508258 5.54074837 5 9 C3.35 9 1.7 9 0 9 C-0.66 6.36 -1.32 3.72 -2 1 C-1.34 0.67 -0.68 0.34 0 0 Z " fill="#D7E2E6" transform="translate(116,342)"/>
<path d="M0 0 C0.66 0.99 1.32 1.98 2 3 C1.67 3.33 1.34 3.66 1 4 C0.60545777 5.84599688 0.25823134 7.70225822 -0.0625 9.5625 C-0.23910156 10.57441406 -0.41570312 11.58632813 -0.59765625 12.62890625 C-0.73042969 13.41136719 -0.86320312 14.19382812 -1 15 C-1.99 15.33 -2.98 15.66 -4 16 C-3.27275406 10.47293087 -1.66554027 5.30039859 0 0 Z " fill="#121D30" transform="translate(428,336)"/>
<path d="M0 0 C0.66 0.33 1.32 0.66 2 1 C1.01 1.33 0.02 1.66 -1 2 C-0.67 3.32 -0.34 4.64 0 6 C-2.76264289 6.59732819 -5.16032769 7 -8 7 C-6.88424427 3.65273281 -6.48655378 3.37920252 -3.5625 1.75 C-2.386875 1.1725 -1.21125 0.595 0 0 Z " fill="#D5E2E6" transform="translate(88,257)"/>
<path d="M0 0 C0.33 0 0.66 0 1 0 C1 1.65 1 3.3 1 5 C0.38125 5.226875 -0.2375 5.45375 -0.875 5.6875 C-3.61410209 7.37929835 -4.05024472 8.99244161 -5 12 C-5.99 11.67 -6.98 11.34 -8 11 C-5.50505292 7.16847413 -2.97337987 3.48603157 0 0 Z " fill="#8AAC42" transform="translate(281,241)"/>
<path d="M0 0 C1.9375 0.75 1.9375 0.75 4 2 C4.75 4.125 4.75 4.125 5 6 C5.66 6 6.32 6 7 6 C7.99 8.31 8.98 10.62 10 13 C9.01 13.33 8.02 13.66 7 14 C6.67 11.69 6.34 9.38 6 7 C5.01 6.67 4.02 6.34 3 6 C1.3125 4.625 1.3125 4.625 0 3 C0 2.01 0 1.02 0 0 Z " fill="#8CB046" transform="translate(230,241)"/>
<path d="M0 0 C2.03356975 1.08457053 3.36736293 2.26621737 4.875 4 C3.555 4 2.235 4 0.875 4 C0.875 3.34 0.875 2.68 0.875 2 C0.215 2 -0.445 2 -1.125 2 C-1.455 3.32 -1.785 4.64 -2.125 6 C-3.775 5.67 -5.425 5.34 -7.125 5 C-2.7347561 0 -2.7347561 0 0 0 Z " fill="#AAC867" transform="translate(257.125,134)"/>
<path d="M0 0 C2.03529587 2.03529587 2.6384272 3.23417382 3.625 5.875 C3.88539063 6.55304688 4.14578125 7.23109375 4.4140625 7.9296875 C5 10 5 10 5 14 C4.01 14 3.02 14 2 14 C2 11.69 2 9.38 2 7 C1.34 7 0.68 7 0 7 C0 4.69 0 2.38 0 0 Z " fill="#A2BE61" transform="translate(278,157)"/>
<path d="M0 0 C0.66 0.33 1.32 0.66 2 1 C0.84414715 4.91211733 -0.35534962 7.8745041 -3 11 C-3.08096803 9.54257537 -3.13917774 8.08387193 -3.1875 6.625 C-3.22230469 5.81289063 -3.25710938 5.00078125 -3.29296875 4.1640625 C-3.19628906 3.44992187 -3.09960938 2.73578125 -3 2 C-2.01 1.34 -1.02 0.68 0 0 Z " fill="#91BDDF" transform="translate(381,442)"/>
<path d="M0 0 C1.485 0.99 1.485 0.99 3 2 C3.66 2 4.32 2 5 2 C4.979375 2.94875 4.95875 3.8975 4.9375 4.875 C4.77448174 7.90666283 4.77448174 7.90666283 6 10 C5.34 10.66 4.68 11.32 4 12 C2.35 8.37 0.7 4.74 -1 1 C-0.67 0.67 -0.34 0.34 0 0 Z " fill="#E1EBF2" transform="translate(130,441)"/>
<path d="M0 0 C2 1 2 1 2.875 3.5 C3.72882071 6.18259554 3.72882071 6.18259554 6.125 6.8125 C7.053125 6.9053125 7.053125 6.9053125 8 7 C8 7.66 8 8.32 8 9 C9.32 9 10.64 9 12 9 C12 9.66 12 10.32 12 11 C7.87240487 10.5309551 4.94713214 10.06048338 2 7 C2 5.68 2 4.36 2 3 C1.01 2.67 0.02 2.34 -1 2 C-0.67 1.34 -0.34 0.68 0 0 Z " fill="#8EB63B" transform="translate(220,265)"/>
<path d="M0 0 C0.33 0 0.66 0 1 0 C1.19335938 0.78246094 1.38671875 1.56492187 1.5859375 2.37109375 C1.84632813 3.38300781 2.10671875 4.39492188 2.375 5.4375 C2.63023437 6.44683594 2.88546875 7.45617187 3.1484375 8.49609375 C3.72573954 11.15570324 3.72573954 11.15570324 6 12 C5.34 12.66 4.68 13.32 4 14 C3.54625 13.38125 3.0925 12.7625 2.625 12.125 C1.02891081 9.94080167 1.02891081 9.94080167 -1 8 C-0.96712417 5.27130593 -0.43602229 2.7033382 0 0 Z " fill="#13191E" transform="translate(145,480)"/>
<path d="M0 0 C0.66 0.33 1.32 0.66 2 1 C0.68938409 5.23429756 -0.94356259 9.07407404 -3 13 C-3.33 13 -3.66 13 -4 13 C-3 5.57142857 -3 5.57142857 -2 2 C-1.34 2 -0.68 2 0 2 C0 1.34 0 0.68 0 0 Z " fill="#92B6D8" transform="translate(376,452)"/>
<path d="M0 0 C1.32 0 2.64 0 4 0 C4.33 2.97 4.66 5.94 5 9 C4.01 9.495 4.01 9.495 3 10 C1.68 7.03 0.36 4.06 -1 1 C-0.67 0.67 -0.34 0.34 0 0 Z " fill="#DAEBED" transform="translate(123,427)"/>
<path d="M0 0 C0.99 0.99 1.98 1.98 3 3 C1.02 5.97 -0.96 8.94 -3 12 C-3.33 11.34 -3.66 10.68 -4 10 C-4.66 9.67 -5.32 9.34 -6 9 C-5.67 8.34 -5.34 7.68 -5 7 C-4.34 7 -3.68 7 -3 7 C-2.67 6.01 -2.34 5.02 -2 4 C-1.34 3.67 -0.68 3.34 0 3 C0 2.01 0 1.02 0 0 Z " fill="#8FB9DD" transform="translate(376,336)"/>
<path d="M0 0 C0 0.33 0 0.66 0 1 C-5.57067277 2.59162079 -10.21101581 3.20674944 -16 3 C-16.33 2.34 -16.66 1.68 -17 1 C-11.33357449 -0.22517308 -5.76291482 -0.09228867 0 0 Z " fill="#91B4D2" transform="translate(366,299)"/>
<path d="M0 0 C0.33 0.66 0.66 1.32 1 2 C0.67 2.99 0.34 3.98 0 5 C-3.68754757 4.50168276 -5.60490662 3.89932357 -8 1 C-5.29120665 -0.35439668 -2.99066732 -0.06501451 0 0 Z " fill="#D0DDDF" transform="translate(157,489)"/>
<path d="M0 0 C0.66 0 1.32 0 2 0 C2.625 3.375 2.625 3.375 3 7 C2.34 7.66 1.68 8.32 1 9 C0.01 8.67 -0.98 8.34 -2 8 C-2.125 5.125 -2.125 5.125 -2 2 C-1.34 1.34 -0.68 0.68 0 0 Z " fill="#DDE8EA" transform="translate(116,293)"/>
<path d="M0 0 C0.89203125 0.00902344 1.7840625 0.01804688 2.703125 0.02734375 C3.37859375 0.03894531 4.0540625 0.05054688 4.75 0.0625 C4.75 0.3925 4.75 0.7225 4.75 1.0625 C2.77 1.0625 0.79 1.0625 -1.25 1.0625 C-1.25 1.7225 -1.25 2.3825 -1.25 3.0625 C-4.55 3.3925 -7.85 3.7225 -11.25 4.0625 C-9.25 1.0625 -9.25 1.0625 -7.453125 0.37890625 C-4.93805939 0.01770002 -2.54041065 -0.03342646 0 0 Z " fill="#90B149" transform="translate(313.25,224.9375)"/>
<path d="M0 0 C1.485 0.99 1.485 0.99 3 2 C3.66 1.67 4.32 1.34 5 1 C5.1875 4.375 5.1875 4.375 5 8 C4.01 8.66 3.02 9.32 2 10 C0.39644899 6.49223216 -0.22036864 3.85645121 0 0 Z " fill="#DCEBF0" transform="translate(104,385)"/>
<path d="M0 0 C0.66 0 1.32 0 2 0 C2 0.99 2 1.98 2 3 C1.01 3.495 1.01 3.495 0 4 C0 4.99 0 5.98 0 7 C-0.99 7 -1.98 7 -3 7 C-3.33 7.99 -3.66 8.98 -4 10 C-4.66 9.01 -5.32 8.02 -6 7 C-5.04882866 5.8274869 -4.08882991 4.66212985 -3.125 3.5 C-2.59132812 2.8503125 -2.05765625 2.200625 -1.5078125 1.53125 C-0.76144531 0.77328125 -0.76144531 0.77328125 0 0 Z " fill="#A4C062" transform="translate(246,141)"/>
<path d="M0 0 C1.98 0.66 3.96 1.32 6 2 C6 2.99 6 3.98 6 5 C3.69 5 1.38 5 -1 5 C-0.67 3.35 -0.34 1.7 0 0 Z " fill="#B4DE58" transform="translate(249,139)"/>
<path d="M0 0 C0.99 0.33 1.98 0.66 3 1 C3 1.33 3 1.66 3 2 C4.65 2.33 6.3 2.66 8 3 C7.67 3.66 7.34 4.32 7 5 C4.0625 5.75 4.0625 5.75 1 6 C0.34 5.34 -0.32 4.68 -1 4 C-0.625 1.875 -0.625 1.875 0 0 Z " fill="#D0E8F7" transform="translate(174,393)"/>
<path d="M0 0 C0.66 0 1.32 0 2 0 C2.77916092 5.02125926 3.13016601 8.97703996 2 14 C0 12 0 12 -0.125 9.0625 C-0.08375 8.051875 -0.0425 7.04125 0 6 C0 5.01 0 4.02 0 3 C0 2.01 0 1.02 0 0 Z " fill="#D7E4E8" transform="translate(244,378)"/>
<path d="M0 0 C1.231394 2.46278801 1.07159196 4.2795055 1 7 C0.01 7.33 -0.98 7.66 -2 8 C-2.33 8.66 -2.66 9.32 -3 10 C-3.99 9.67 -4.98 9.34 -6 9 C-4.02 6.03 -2.04 3.06 0 0 Z " fill="#0F1A2B" transform="translate(358,368)"/>
<path d="M0 0 C2.40072955 2.88087546 4.47291037 5.56404834 6 9 C4.35 9.33 2.7 9.66 1 10 C-0.17844001 6.46467997 0 3.73899692 0 0 Z " fill="#0A1507" transform="translate(200,250)"/>
<path d="M0 0 C0.33 0.66 0.66 1.32 1 2 C1.66 2 2.32 2 3 2 C3.77916092 7.02125926 4.13016601 10.97703996 3 16 C2.67 16 2.34 16 2 16 C0.80911014 10.61972975 -0.2919519 5.54708616 0 0 Z " fill="#111F03" transform="translate(283,166)"/>
<path d="M0 0 C1.17539996 0.92652701 2.34010577 1.86663387 3.5 2.8125 C4.1496875 3.33457031 4.799375 3.85664063 5.46875 4.39453125 C7 6 7 6 7 9 C5.68 8.34 4.36 7.68 3 7 C3 6.34 3 5.68 3 5 C2.01 4.67 1.02 4.34 0 4 C-0.33 3.01 -0.66 2.02 -1 1 C-0.67 0.67 -0.34 0.34 0 0 Z " fill="#DBE5EB" transform="translate(227,352)"/>
<path d="M0 0 C0.66 0.33 1.32 0.66 2 1 C0.92492371 2.29854721 -0.16043736 3.58858361 -1.25 4.875 C-1.85328125 5.59429687 -2.4565625 6.31359375 -3.078125 7.0546875 C-4.97087634 8.97052118 -6.53657727 9.96449045 -9 11 C-7.59155282 7.78475695 -5.89655214 5.67816132 -3.375 3.25 C-2.74335938 2.63640625 -2.11171875 2.0228125 -1.4609375 1.390625 C-0.73777344 0.70226562 -0.73777344 0.70226562 0 0 Z " fill="#090A0B" transform="translate(275,337)"/>
<path d="M0 0 C0.33 0 0.66 0 1 0 C1.05449838 1.72880982 1.09301688 3.45812712 1.125 5.1875 C1.14820313 6.15042969 1.17140625 7.11335938 1.1953125 8.10546875 C0.9913544 11.12812778 0.26874632 13.26769985 -1 16 C-1.33 16 -1.66 16 -2 16 C-1.85890014 13.89551062 -1.71195825 11.7914123 -1.5625 9.6875 C-1.48128906 8.51574219 -1.40007812 7.34398437 -1.31640625 6.13671875 C-1 3 -1 3 0 0 Z " fill="#A6D7F9" transform="translate(419,296)"/>
<path d="M0 0 C1 3 1 3 -0.25 6.625 C-2 10 -2 10 -5 11 C-5.33 11.99 -5.66 12.98 -6 14 C-5.41892368 10.2397015 -4.34800504 7.46964968 -2.4375 4.1875 C-1.98246094 3.39730469 -1.52742187 2.60710937 -1.05859375 1.79296875 C-0.53458984 0.90544922 -0.53458984 0.90544922 0 0 Z " fill="#ABC56F" transform="translate(239,149)"/>
<path d="M0 0 C0.66 0.66 1.32 1.32 2 2 C-0.71182212 4.60334924 -1.89133813 4.99456691 -5.75 5.1875 C-6.8225 5.125625 -7.895 5.06375 -9 5 C-8.01 4.67 -7.02 4.34 -6 4 C-6 3.34 -6 2.68 -6 2 C-4.02 1.34 -2.04 0.68 0 0 Z " fill="#0C1119" transform="translate(354,400)"/>
<path d="M0 0 C0.66 0.66 1.32 1.32 2 2 C1.75 4.0625 1.75 4.0625 1 6 C0.01 6.495 0.01 6.495 -1 7 C-1.99 8.485 -1.99 8.485 -3 10 C-3 9.34 -3 8.68 -3 8 C-3.66 7.67 -4.32 7.34 -5 7 C-3.35 4.69 -1.7 2.38 0 0 Z " fill="#131D2A" transform="translate(369,352)"/>
<path d="M0 0 C0.66 0 1.32 0 2 0 C2 2.31 2 4.62 2 7 C0.02 7.99 0.02 7.99 -2 9 C-2 8.34 -2 7.68 -2 7 C-1.34 7 -0.68 7 0 7 C0 6.34 0 5.68 0 5 C-0.66 5 -1.32 5 -2 5 C-1.34 3.35 -0.68 1.7 0 0 Z " fill="#C2DCF0" transform="translate(326,323)"/>
<path d="M0 0 C0.99 0 1.98 0 3 0 C3.66 1.98 4.32 3.96 5 6 C3.35 6.33 1.7 6.66 0 7 C0 6.34 0 5.68 0 5 C-0.66 5 -1.32 5 -2 5 C-2 4.34 -2 3.68 -2 3 C-1.01 3 -0.02 3 1 3 C0.67 2.01 0.34 1.02 0 0 Z " fill="#88C9F4" transform="translate(371,304)"/>
<path d="M0 0 C2.31 0 4.62 0 7 0 C6.67 1.32 6.34 2.64 6 4 C4.68 4 3.36 4 2 4 C2 4.66 2 5.32 2 6 C1.34 6 0.68 6 0 6 C0 4.02 0 2.04 0 0 Z " fill="#0B110F" transform="translate(270,278)"/>
<path d="M0 0 C0.66 0.99 1.32 1.98 2 3 C1.67 3.99 1.34 4.98 1 6 C0.34 6 -0.32 6 -1 6 C-1.66 7.65 -2.32 9.3 -3 11 C-3.66 11 -4.32 11 -5 11 C-3.92289822 6.69159287 -2.96052484 3.36423277 0 0 Z " fill="#B4C5D7" transform="translate(402,263)"/>
<path d="M0 0 C0 0.66 0 1.32 0 2 C0.66 2.33 1.32 2.66 2 3 C-0.57213134 4.61949011 -1.67669159 5.04408751 -4.75 4.625 C-5.4925 4.41875 -6.235 4.2125 -7 4 C-3.375 0 -3.375 0 0 0 Z " fill="#B8D7E7" transform="translate(410,259)"/>
<path d="M0 0 C2.93200474 2.85276137 5.64315404 5.65079784 8 9 C6.02 8.34 4.04 7.68 2 7 C2 6.34 2 5.68 2 5 C1.01 4.67 0.02 4.34 -1 4 C-0.67 2.68 -0.34 1.36 0 0 Z " fill="#16230D" transform="translate(240,225)"/>
<path d="M0 0 C1.32 0.33 2.64 0.66 4 1 C4.33 3.31 4.66 5.62 5 8 C4.34 8 3.68 8 3 8 C2.67 8.66 2.34 9.32 2 10 C1.34 6.7 0.68 3.4 0 0 Z " fill="#D6E4E9" transform="translate(144,475)"/>
<path d="M0 0 C4.875 4.625 4.875 4.625 6 8 C5.01 8.66 4.02 9.32 3 10 C0.96564469 6.27034861 0 4.33094958 0 0 Z " fill="#D8E3E5" transform="translate(144,384)"/>
<path d="M0 0 C0.66 0.33 1.32 0.66 2 1 C1.33333333 3 0.66666667 5 0 7 C-2.0625 7.6875 -2.0625 7.6875 -4 8 C-4.33 7.34 -4.66 6.68 -5 6 C-3.35 4.02 -1.7 2.04 0 0 Z " fill="#BBD2E4" transform="translate(278,359)"/>
<path d="M0 0 C0.66 0.99 1.32 1.98 2 3 C-2.75 6 -2.75 6 -5 6 C-5.33 5.01 -5.66 4.02 -6 3 C-4.02 2.01 -2.04 1.02 0 0 Z " fill="#BACFE3" transform="translate(297,345)"/>
<path d="M0 0 C2.62901288 1.52206009 4.84365964 2.84365964 7 5 C6.67 5.99 6.34 6.98 6 8 C3.5625 6.8125 3.5625 6.8125 1 5 C0.1875 2.3125 0.1875 2.3125 0 0 Z " fill="#D8E2E6" transform="translate(185,324)"/>
<path d="M0 0 C3.82329586 0.5166616 5.37334885 1.25914662 8 4 C10.10332891 4.71447643 10.10332891 4.71447643 12 5 C11.67 5.99 11.34 6.98 11 8 C9.16399255 6.85845641 7.33125195 5.71165684 5.5 4.5625 C4.4790625 3.92441406 3.458125 3.28632813 2.40625 2.62890625 C1.6121875 2.09136719 0.818125 1.55382812 0 1 C0 0.67 0 0.34 0 0 Z " fill="#A7C566" transform="translate(228,216)"/>
<path d="M0 0 C0.99 0.99 1.98 1.98 3 3 C2.01 4.485 2.01 4.485 1 6 C0.60986284 7.9896995 0.26797351 9.99019869 0 12 C-0.33 12 -0.66 12 -1 12 C-2 4.375 -2 4.375 -2 1 C-1.67 1.66 -1.34 2.32 -1 3 C-0.67 2.01 -0.34 1.02 0 0 Z " fill="#BAD0DF" transform="translate(173,388)"/>
<path d="M0 0 C1 4 1 4 -0.4375 6.75 C-1.2109375 7.86375 -1.2109375 7.86375 -2 9 C-3.32 8.67 -4.64 8.34 -6 8 C-4.02 5.36 -2.04 2.72 0 0 Z " fill="#B6C9D9" transform="translate(334,311)"/>
<path d="M0 0 C0.66 0.33 1.32 0.66 2 1 C1.67 2.65 1.34 4.3 1 6 C-0.98 6 -2.96 6 -5 6 C-4.67 5.01 -4.34 4.02 -4 3 C-3.01 2.67 -2.02 2.34 -1 2 C-0.67 1.34 -0.34 0.68 0 0 Z " fill="#95C232" transform="translate(277,250)"/>
<path d="M0 0 C1.65 0 3.3 0 5 0 C5.33 2.31 5.66 4.62 6 7 C3.95880212 5.38405168 1.95927063 3.7143618 0 2 C0 1.34 0 0.68 0 0 Z " fill="#AAC574" transform="translate(242,226)"/>
<path d="M0 0 C0 4.24645065 -1.81750806 6.38524772 -4 10 C-4.99 9.67 -5.98 9.34 -7 9 C-6.67 8.01 -6.34 7.02 -6 6 C-5.01 6 -4.02 6 -3 6 C-2.690625 5.195625 -2.38125 4.39125 -2.0625 3.5625 C-1 1 -1 1 0 0 Z " fill="#C1DBED" transform="translate(370,482)"/>
<path d="M0 0 C0.33 0 0.66 0 1 0 C3.14285714 7.42857143 3.14285714 7.42857143 4 11 C3.01 11 2.02 11 1 11 C-0.20272819 8.59454362 -0.10071472 7.05003047 -0.0625 4.375 C-0.05347656 3.55773437 -0.04445313 2.74046875 -0.03515625 1.8984375 C-0.02355469 1.27195312 -0.01195312 0.64546875 0 0 Z " fill="#B1CDE2" transform="translate(368,470)"/>
<path d="M0 0 C0.33 0 0.66 0 1 0 C1 2.97 1 5.94 1 9 C-0.32 9 -1.64 9 -3 9 C-2.01 6.03 -1.02 3.06 0 0 Z " fill="#152334" transform="translate(423,352)"/>
<path d="M0 0 C-3.82517513 2.39073445 -7.59665524 2.55966552 -12 3 C-8.16772312 -1.19725563 -5.42060446 -1.08412089 0 0 Z " fill="#CFE4F0" transform="translate(166,301)"/>
<path d="M0 0 C0.66 0 1.32 0 2 0 C1.34 3.3 0.68 6.6 0 10 C-0.66 10 -1.32 10 -2 10 C-2 7.36 -2 4.72 -2 2 C-1.34 2 -0.68 2 0 2 C0 1.34 0 0.68 0 0 Z " fill="#B1D95A" transform="translate(246,180)"/>
<path d="M0 0 C0.99 0.66 1.98 1.32 3 2 C1.50260417 3.23697917 0.00520833 4.47395833 -1.4921875 5.7109375 C-2.71051161 6.75250992 -3.86660097 7.86660097 -5 9 C-5.33 8.01 -5.66 7.02 -6 6 C-5.01 5.67 -4.02 5.34 -3 5 C-3 4.34 -3 3.68 -3 3 C-2.34 3 -1.68 3 -1 3 C-0.67 2.01 -0.34 1.02 0 0 Z " fill="#111E09" transform="translate(247,137)"/>
<path d="M0 0 C0.99 0 1.98 0 3 0 C2.45276317 3.37462715 1.9451 5.08235 0 8 C-1.125 2.25 -1.125 2.25 0 0 Z " fill="#162131" transform="translate(341,392)"/>
<path d="M0 0 C0.33 0 0.66 0 1 0 C1.12375 1.0725 1.2475 2.145 1.375 3.25 C1.89643936 6.37863615 2.40088254 8.33480424 4 11 C3.01 11.99 2.02 12.98 1 14 C0.06380187 10.84493858 -0.1057123 8.03413498 -0.0625 4.75 C-0.05347656 3.85796875 -0.04445312 2.9659375 -0.03515625 2.046875 C-0.02355469 1.37140625 -0.01195312 0.6959375 0 0 Z " fill="#C1D4E4" transform="translate(129,318)"/>
<path d="M0 0 C3.96 0 7.92 0 12 0 C12 0.66 12 1.32 12 2 C10.02 2.33 8.04 2.66 6 3 C6 2.34 6 1.68 6 1 C4.02 1 2.04 1 0 1 C0 0.67 0 0.34 0 0 Z " fill="#BBC9D9" transform="translate(148,299)"/>
<path d="M0 0 C2.31 0.33 4.62 0.66 7 1 C5.35 2.32 3.7 3.64 2 5 C1.01 4.34 0.02 3.68 -1 3 C-0.67 2.01 -0.34 1.02 0 0 Z " fill="#0A1019" transform="translate(137,299)"/>
<path d="M0 0 C2.475 0.495 2.475 0.495 5 1 C5 2.65 5 4.3 5 6 C5.99 6.33 6.98 6.66 8 7 C7.34 7.66 6.68 8.32 6 9 C6 8.34 6 7.68 6 7 C5.34 7 4.68 7 4 7 C2.02 3.535 2.02 3.535 0 0 Z " fill="#0B1B03" transform="translate(231,240)"/>
<path d="M0 0 C0.33 0.66 0.66 1.32 1 2 C-2.07999946 5.67230705 -4.2482602 6.56802365 -9 7 C-6.19195732 4.03595495 -3.81684226 1.55500981 0 0 Z " fill="#17250A" transform="translate(285,216)"/>
<path d="M0 0 C2.0625 0.4375 2.0625 0.4375 4 1 C3.67 2.65 3.34 4.3 3 6 C3.66 6.33 4.32 6.66 5 7 C4.01 7 3.02 7 2 7 C1.01 5.02 0.02 3.04 -1 1 C-0.67 0.67 -0.34 0.34 0 0 Z " fill="#BBCFE0" transform="translate(145,352)"/>
<path d="M0 0 C1.2380014 3.57644848 0.74926071 6.33694766 0 10 C-0.33 10 -0.66 10 -1 10 C-1 8.35 -1 6.7 -1 5 C-1.66 5 -2.32 5 -3 5 C-2.625 3.0625 -2.625 3.0625 -2 1 C-1.34 0.67 -0.68 0.34 0 0 Z " fill="#C0DAF0" transform="translate(391,353)"/>
<path d="M0 0 C0.33 1.32 0.66 2.64 1 4 C0.34 4 -0.32 4 -1 4 C-1.33 5.32 -1.66 6.64 -2 8 C-2.99 7.67 -3.98 7.34 -5 7 C-3.35 4.69 -1.7 2.38 0 0 Z " fill="#091629" transform="translate(375,344)"/>
<path d="M0 0 C1.64767247 0.28109113 3.29313145 0.57518526 4.9375 0.875 C5.85402344 1.03742188 6.77054688 1.19984375 7.71484375 1.3671875 C8.46894531 1.57601563 9.22304687 1.78484375 10 2 C10.33 2.66 10.66 3.32 11 4 C6.78121808 4.19622241 3.82989106 3.80230168 0 2 C0 1.34 0 0.68 0 0 Z " fill="#0D1803" transform="translate(230,276)"/>
<path d="M0 0 C0.33 0.99 0.66 1.98 1 3 C-1.297221 4.74271938 -3.59866729 6.39911152 -6 8 C-6 5 -6 5 -4.6875 3.61328125 C-3.125 2.40885417 -1.5625 1.20442708 0 0 Z " fill="#090A08" transform="translate(241,122)"/>
<path d="M0 0 C0.99 0.33 1.98 0.66 3 1 C0.525 4.465 0.525 4.465 -2 8 C-2.66 6.68 -3.32 5.36 -4 4 C-2.68 2.68 -1.36 1.36 0 0 Z " fill="#0C141D" transform="translate(361,390)"/>
<path d="M0 0 C0.66 0 1.32 0 2 0 C2.36923077 6.52307692 2.36923077 6.52307692 0.5 8.9375 C0.005 9.288125 -0.49 9.63875 -1 10 C-1.125 2.25 -1.125 2.25 0 0 Z " fill="#ADC3D3" transform="translate(266,382)"/>
<path d="M0 0 C0.99 0.33 1.98 0.66 3 1 C1.35 3.64 -0.3 6.28 -2 9 C-3 5 -3 5 -1.5625 2.25 C-1.046875 1.5075 -0.53125 0.765 0 0 Z " fill="#98BCDC" transform="translate(355,368)"/>
<path d="M0 0 C0.66 0.33 1.32 0.66 2 1 C2 1.66 2 2.32 2 3 C1.34 3 0.68 3 0 3 C-0.99 4.485 -0.99 4.485 -2 6 C-3.32 5.34 -4.64 4.68 -6 4 C-4.02 2.68 -2.04 1.36 0 0 Z " fill="#0B0A0C" transform="translate(307,319)"/>
<path d="M0 0 C2.4375 0.8125 2.4375 0.8125 5 2 C5.33 2.99 5.66 3.98 6 5 C5.34 5.66 4.68 6.32 4 7 C4 6.34 4 5.68 4 5 C2.68 4.34 1.36 3.68 0 3 C0 2.01 0 1.02 0 0 Z " fill="#162308" transform="translate(263,136)"/>
<path d="M0 0 C2.66735273 2.48952921 4.55746343 4.63408134 6 8 C5.01 8 4.02 8 3 8 C2.67 6.68 2.34 5.36 2 4 C1.34 4 0.68 4 0 4 C0 2.68 0 1.36 0 0 Z " fill="#D1D9DD" transform="translate(133,368)"/>
<path d="M0 0 C0.33 0.99 0.66 1.98 1 3 C0.01 3.99 -0.98 4.98 -2 6 C-2.99 5.34 -3.98 4.68 -5 4 C-3 1 -3 1 0 0 Z " fill="#BAD2E6" transform="translate(383,365)"/>
<path d="M0 0 C1.98 0 3.96 0 6 0 C6 1.65 6 3.3 6 5 C5.01 5.495 5.01 5.495 4 6 C2.68 4.02 1.36 2.04 0 0 Z " fill="#101517" transform="translate(234,358)"/>
<path d="M0 0 C2.79872437 2.52788007 4.45773019 4.20411134 5 8 C2 7 2 7 0 5 C-0.125 2.375 -0.125 2.375 0 0 Z " fill="#8BAFCF" transform="translate(432,263)"/>
<path d="M0 0 C0.33 0.66 0.66 1.32 1 2 C-2.24509304 4.03977277 -5.40608886 5.66511872 -9 7 C-6.19195732 4.03595495 -3.81684226 1.55500981 0 0 Z " fill="#8DB145" transform="translate(291,234)"/>
<path d="M0 0 C0.99 0 1.98 0 3 0 C3.625 1.875 3.625 1.875 4 4 C3.34 4.66 2.68 5.32 2 6 C1.01 4.68 0.02 3.36 -1 2 C-0.67 1.34 -0.34 0.68 0 0 Z " fill="#D8E5E9" transform="translate(171,400)"/>
<path d="M0 0 C1.09658936 3.28976808 0.79953138 4.71303767 0 8 C-1.32 7.67 -2.64 7.34 -4 7 C-2.68 4.69 -1.36 2.38 0 0 Z " fill="#B5CADA" transform="translate(362,392)"/>
<path d="M0 0 C0.66 0 1.32 0 2 0 C1.25 5.75 1.25 5.75 -1 8 C-1.04241723 5.66705225 -1.04092937 3.33297433 -1 1 C-0.67 0.67 -0.34 0.34 0 0 Z " fill="#96BCDA" transform="translate(413,372)"/>
<path d="M0 0 C0.66 0.33 1.32 0.66 2 1 C1.01 2.98 0.02 4.96 -1 7 C-1.99 7 -2.98 7 -4 7 C-2.79618552 4.50638429 -1.54571278 2.31856917 0 0 Z " fill="#0D1B29" transform="translate(363,361)"/>
<path d="M0 0 C0.66 0.33 1.32 0.66 2 1 C2 1.66 2 2.32 2 3 C-0.70879335 4.35439668 -3.00933268 4.06501451 -6 4 C-4.03617993 2.49440461 -2.21736634 1.10868317 0 0 Z " fill="#C6DAEA" transform="translate(311,338)"/>
<path d="M0 0 C1.65 0 3.3 0 5 0 C5 0.66 5 1.32 5 2 C6.32 2 7.64 2 9 2 C9 2.66 9 3.32 9 4 C7.68528432 3.71848913 6.37324233 3.42446661 5.0625 3.125 C3.96615234 2.88136719 3.96615234 2.88136719 2.84765625 2.6328125 C1 2 1 2 0 0 Z " fill="#010718" transform="translate(359,296)"/>
<path d="M0 0 C0.33 0 0.66 0 1 0 C1.28571429 7.42857143 1.28571429 7.42857143 -1 11 C-2.25 3.375 -2.25 3.375 0 0 Z " fill="#7794AC" transform="translate(438,285)"/>
<path d="M0 0 C0.99 0.33 1.98 0.66 3 1 C3.6875 3.0625 3.6875 3.0625 4 5 C1 5 1 5 -1 4 C-0.67 2.68 -0.34 1.36 0 0 Z " fill="#C6DEF6" transform="translate(403,263)"/>
<path d="M0 0 C1.65 0 3.3 0 5 0 C5.66 1.32 6.32 2.64 7 4 C5.68 4 4.36 4 3 4 C1.25 2 1.25 2 0 0 Z " fill="#90C1E9" transform="translate(425,260)"/>
<path d="M0 0 C0.66 0.33 1.32 0.66 2 1 C1.67 3.31 1.34 5.62 1 8 C0.01 7.34 -0.98 6.68 -2 6 C-2.1875 3.375 -2.1875 3.375 -2 1 C-1.34 0.67 -0.68 0.34 0 0 Z " fill="#ABDB40" transform="translate(268,176)"/>
</svg>
